<svg width="22" height="23" viewBox="0 0 22 23" fill="none" xmlns="http://www.w3.org/2000/svg">
<g clip-path="url(#clip0_8209_10536)">
<path d="M14.0363 16.3566L14.025 16.3454H13.7884L12.1318 11.8377C12.135 11.804 12.135 11.77 12.1318 11.7363L9.76528 5.33542C9.62683 5.04288 9.27745 4.918 8.98491 5.05651C8.86252 5.11445 8.76395 5.21302 8.706 5.33542L4.6491 16.3003H4.38989C4.0787 16.3003 3.82642 16.5526 3.82642 16.8638C3.82642 17.175 4.0787 17.4272 4.38989 17.4272H5.64077C5.95196 17.4272 6.20425 17.175 6.20425 16.8638C6.20446 16.6194 6.04403 16.4039 5.80981 16.3341L7.21847 12.604H11.219L12.6164 16.3905C12.3822 16.4603 12.2217 16.6757 12.2219 16.9201C12.2219 17.2313 12.4742 17.4836 12.7854 17.4836H14.0363C14.3475 17.4836 14.5998 17.2313 14.5998 16.9201C14.5997 16.6089 14.3475 16.3566 14.0363 16.3566ZM7.62411 11.4771L9.20181 7.20608L10.7795 11.4771H7.62411Z" fill="#2D2E2E"/>
<path d="M17.6198 16.3464H17.5972H17.5184L16.3013 13.0445V12.9657L14.5095 8.11993C14.4288 7.89685 14.2171 7.74815 13.9798 7.74805C13.7426 7.74815 13.5308 7.89685 13.4502 8.11993L12.5937 10.4639C12.4962 10.7594 12.6567 11.078 12.9522 11.1755C13.236 11.2692 13.5434 11.125 13.653 10.847L13.9798 9.94548L14.9828 12.6501H14.2616C13.9504 12.6501 13.6981 12.9024 13.6981 13.2136C13.6981 13.5247 13.9504 13.777 14.2616 13.777H15.3885L16.3802 16.4478C16.2207 16.5476 16.123 16.7218 16.1209 16.9099C16.1209 17.2211 16.3732 17.4734 16.6844 17.4734H17.6198C17.931 17.4734 18.1833 17.2211 18.1833 16.9099C18.1832 16.5987 17.931 16.3464 17.6198 16.3464Z" fill="#2D2E2E"/>
<path d="M18.6124 0.253906H3.38761C1.52047 0.253861 0.0053536 1.76467 0 3.6318V18.8663C0.0053536 20.7334 1.52047 22.2442 3.38761 22.2442H18.6124C20.4795 22.2442 21.9946 20.7334 22 18.8663V3.6318C21.9946 1.76467 20.4795 0.253861 18.6124 0.253906ZM21.0321 18.8663C21.0268 20.1989 19.945 21.2763 18.6124 21.2763H3.38761C2.05501 21.2763 0.973222 20.1989 0.967913 18.8663V3.6318C0.973222 2.29921 2.05501 1.22177 3.38761 1.22177H18.6124C19.945 1.22177 21.0268 2.29921 21.0321 3.6318V18.8663Z" fill="#2D2E2E"/>
</g>
<defs>
<clipPath id="clip0_8209_10536">
<rect width="22" height="22" fill="white" transform="translate(0 0.25)"/>
</clipPath>
</defs>
</svg>
