<svg width="327" height="48" viewBox="0 0 327 48" fill="none" xmlns="http://www.w3.org/2000/svg">
<path d="M30.3325 37.4147H27.7165L15.1009 10.0739L2.4852 37.4147H0L14.388 4.97949H15.9184L30.3325 37.4147ZM25.1005 37.4147H22.4845L20.7776 33.7667H9.156L7.44906 37.4147H4.9704L7.63872 31.6035H22.4191L25.1005 37.4147ZM8.65242 29.4403L15.042 15.6099L21.4054 29.4403H8.65242ZM12.1513 27.2771H17.7692L14.957 21.1523L12.1513 27.2771Z" fill="url(#paint0_linear_1078_3158)"/>
<path d="M22.236 12.3201H30.3325V37.4145H32.8177V10.0225H21.1177L22.236 12.3201Z" fill="url(#paint1_linear_1078_3158)"/>
<path d="M17.9588 5.43311L19.2603 7.73069H43.7264V10.0219H35.3029V37.4139H37.7881V12.3195H46.0743V12.2875V10.0219V7.73069V6.22671V5.43311H17.9588Z" fill="url(#paint2_linear_1078_3158)"/>
<path d="M5.74212 9.2739C5.15823 9.32433 4.57395 9.18142 4.08297 8.86808C3.592 8.55473 3.22279 8.08913 3.03456 7.5459C2.90969 7.21573 2.85347 6.86449 2.86919 6.51281C2.88491 6.16115 2.97227 5.81608 3.12612 5.49788C3.3419 4.99532 3.70768 4.56821 4.17561 4.27245C4.64354 3.9767 5.19181 3.82607 5.74866 3.84028C7.4229 3.91068 8.45622 4.86428 8.58048 6.20188C8.60998 6.4035 8.60998 6.60824 8.58048 6.8099C8.49069 7.44478 8.18272 8.03089 7.70726 8.47172C7.2318 8.91256 6.61717 9.18193 5.96448 9.2355L5.74212 9.2739ZM5.74212 7.6291C6.06722 7.63083 6.38008 7.50789 6.61358 7.28657C6.84712 7.0652 6.98269 6.76312 6.99126 6.4451C6.96301 6.15196 6.81985 5.88093 6.59186 5.68884C6.36383 5.49674 6.06868 5.39848 5.76828 5.41468C5.45585 5.423 5.15679 5.54052 4.92525 5.74597C4.69372 5.95142 4.54501 6.23121 4.50606 6.5347C4.5276 6.83237 4.66384 7.11096 4.88722 7.31409C5.1106 7.51723 5.40447 7.62981 5.70942 7.6291H5.74212Z" fill="url(#paint3_linear_1078_3158)"/>
<path d="M46.0481 19.0533L46.0743 16.7812L40.0183 16.7877L40.0444 19.0533H46.0481Z" fill="url(#paint4_linear_1078_3158)"/>
<path d="M40.0444 22.7266H46.0481L46.0743 20.4546L40.0183 20.461L40.0444 22.7266Z" fill="url(#paint5_linear_1078_3158)"/>
<path d="M40.0444 26.3935H46.0481L46.0743 24.1279L40.0183 24.1343L40.0444 26.3935Z" fill="url(#paint6_linear_1078_3158)"/>
<path d="M40.0444 30.0674H46.0481L46.0743 27.7954L40.0183 27.8018L40.0444 30.0674Z" fill="url(#paint7_linear_1078_3158)"/>
<path d="M40.0444 33.7412H46.0481L46.0743 31.4692L40.0183 31.4756L40.0444 33.7412Z" fill="url(#paint8_linear_1078_3158)"/>
<path d="M40.0444 37.4146H46.0481L46.0743 35.1426L40.0183 35.149L40.0444 37.4146Z" fill="url(#paint9_linear_1078_3158)"/>
<path d="M98.2504 37.3313H95.7064L83.4831 10.8289L71.286 37.3313H68.8727L83.3523 5.89453H83.7512L98.2504 37.3313ZM93.1623 37.3313H90.6248L88.944 33.7921H77.7279L76.0798 37.3313H73.6666L76.2826 31.6993H90.6052L93.1623 37.3313ZM77.2374 29.6001L83.4373 16.1985L89.598 29.6001H77.2374ZM80.6251 27.5201H86.0729L83.3523 21.5809L80.6251 27.5201Z" fill="url(#paint10_linear_1078_3158)"/>
<path d="M124.796 31.9168L126.183 33.664C123.218 36.3346 119.324 37.7993 115.294 37.76C113.15 37.7915 111.024 37.3932 109.045 36.5897C107.065 35.7862 105.274 34.5945 103.783 33.088C102.244 31.6288 101.026 29.8767 100.205 27.9395C99.3838 26.0022 98.977 23.921 99.0091 21.824C98.977 19.727 99.3838 17.6457 100.205 15.7085C101.026 13.7712 102.244 12.0191 103.783 10.56C105.274 9.05349 107.065 7.86174 109.045 7.05822C111.024 6.25474 113.15 5.85646 115.294 5.88796C119.258 5.85685 123.092 7.27403 126.045 9.86238L124.665 11.6096C122.095 9.34277 118.753 8.09662 115.294 8.11518C113.464 8.08907 111.65 8.43192 109.962 9.12229C108.274 9.81272 106.75 10.8358 105.484 12.128C104.166 13.3878 103.124 14.8973 102.422 16.5645C101.721 18.2315 101.374 20.0212 101.403 21.824C101.374 23.6267 101.721 25.4164 102.422 27.0835C103.124 28.7506 104.166 30.2602 105.484 31.52C106.75 32.8121 108.274 33.8352 109.962 34.5256C111.65 35.216 113.464 35.5588 115.294 35.5328C118.82 35.5752 122.225 34.2792 124.796 31.9168ZM122.076 28.4672L123.462 30.2144C121.243 32.2294 118.321 33.3377 115.294 33.312C113.778 33.3303 112.275 33.0393 110.881 32.4575C109.487 31.8757 108.232 31.0158 107.197 29.9328C106.11 28.8718 105.251 27.6079 104.673 26.216C104.095 24.8242 103.807 23.3328 103.829 21.8304C103.807 20.3289 104.094 18.8384 104.673 17.4475C105.251 16.0567 106.11 14.794 107.197 13.7344C108.231 12.6492 109.485 11.7875 110.88 11.2045C112.274 10.6215 113.778 10.33 115.294 10.3488C118.252 10.3405 121.111 11.3974 123.325 13.3184L121.945 15.0656C120.093 13.5003 117.74 12.6194 115.294 12.576C114.092 12.5566 112.901 12.7835 111.795 13.242C110.688 13.7005 109.693 14.3806 108.871 15.2384C108.007 16.1105 107.331 17.1432 106.882 18.2754C106.433 19.4075 106.219 20.6163 106.255 21.8304C106.219 23.0444 106.433 24.2532 106.882 25.3854C107.331 26.5175 108.007 27.5502 108.871 28.4224C109.691 29.2815 110.688 29.9623 111.793 30.421C112.9 30.8796 114.092 31.1057 115.294 31.0848C117.804 31.0487 120.216 30.1181 122.076 28.4672Z" fill="url(#paint11_linear_1078_3158)"/>
<path d="M151.479 6.33008V8.55727H128.184V6.33008H151.479ZM138.648 37.3317H136.241V13.0117H128.184V10.7845H138.648V37.3317ZM143.468 37.3317H141.061V10.7845H151.525V13.0117H143.448L143.468 37.3317Z" fill="url(#paint12_linear_1078_3158)"/>
<path d="M159.955 37.3317H157.549V6.33008H159.955V37.3317ZM164.775 37.3317H162.369V6.33008H164.808L164.775 37.3317Z" fill="url(#paint13_linear_1078_3158)"/>
<path d="M196.409 6.33008H198.816L184.317 37.7605H183.918L169.386 6.33008H171.93L184.16 32.8325L196.409 6.33008ZM191.589 6.33008H193.996L184.225 27.4501L174.5 6.33008H177.044L184.317 22.0933L191.589 6.33008Z" fill="url(#paint14_linear_1078_3158)"/>
<path d="M223.223 37.3313H220.679L208.456 10.8289L196.233 37.3313H193.819L208.319 5.89453H208.724L223.223 37.3313ZM218.135 37.3313H215.591L213.943 33.7921H202.701L201.046 37.3313H198.639L201.255 31.6993H215.578L218.135 37.3313ZM202.21 29.6001L208.41 16.1985L214.564 29.6001H202.21ZM205.598 27.5201H211.039L208.319 21.5809L205.598 27.5201Z" fill="url(#paint15_linear_1078_3158)"/>
<path d="M244.949 6.33008V8.55727H221.66V6.33008H244.949ZM232.105 37.3317H229.691V13.0117H221.66V10.7845H232.124L232.105 37.3317ZM236.918 37.3317H234.511V10.7845H244.975V13.0117H236.918V37.3317Z" fill="url(#paint16_linear_1078_3158)"/>
<path d="M275.825 37.3317H273.15L265.119 25.8117C266.865 25.1553 268.372 24.0058 269.448 22.5093C270.398 21.1527 270.904 19.5457 270.9 17.9013C270.9 14.9658 269.873 12.6512 267.82 10.9573C265.766 9.26344 263.135 8.41006 259.926 8.39726H253.451V37.3317H251.044V6.33008H259.9C263.824 6.33008 267.059 7.35624 269.605 9.40846C272.151 11.4608 273.422 14.2981 273.418 17.9205C273.427 19.628 272.959 21.3056 272.064 22.7717C271.13 24.2947 269.819 25.5626 268.251 26.4581L275.825 37.3317ZM267.793 37.3317L258.245 23.6805V37.3317H255.838V10.5221H259.9C262.1 10.4334 264.257 11.1319 265.969 12.4869C266.759 13.1572 267.382 13.995 267.791 14.9367C268.2 15.8782 268.385 16.8987 268.33 17.9205C268.349 19.5706 267.738 21.1681 266.616 22.4005C265.328 23.7505 263.597 24.6157 261.724 24.8453L270.475 37.3317H267.793ZM259.9 12.6213H258.245V23.2261H259.586C261.578 23.2261 263.104 22.7461 264.164 21.7861C264.702 21.2936 265.126 20.6935 265.406 20.0264C265.686 19.3593 265.815 18.641 265.786 17.9205C265.826 17.1952 265.701 16.4703 265.419 15.7983C265.137 15.1264 264.707 14.5242 264.157 14.0357C262.968 13.06 261.45 12.5555 259.9 12.6213Z" fill="url(#paint17_linear_1078_3158)"/>
<path d="M298.983 35.1045V37.3317H281.043V6.33008H298.983V8.55727H283.457V35.1045H298.983ZM298.087 17.8245V20.0517H285.863V10.7845H298.983V13.0117H288.277V17.8117L298.087 17.8245ZM298.983 30.6629V32.8901H285.863V22.2661H298.087V24.4933H288.277V30.6501L298.983 30.6629Z" fill="url(#paint18_linear_1078_3158)"/>
<path d="M324.188 35.1045V37.3317H306.255V6.33008H324.188V8.55727H308.688V35.1045H324.188ZM323.298 17.8245V20.0517H311.075V10.7845H324.188V13.0117H313.482V17.8117L323.298 17.8245ZM324.188 30.6629V32.8901H311.075V22.2661H323.298V24.4933H313.488V30.6501L324.188 30.6629Z" fill="url(#paint19_linear_1078_3158)"/>
<path d="M60.325 20.9089C60.2399 26.0289 60.1549 31.0913 60.0699 36.1473C59.5729 35.3025 59.8541 8.39047 60.3053 7.69287C60.2334 12.2177 60.6193 16.5185 60.325 20.9089Z" fill="#000080"/>
<defs>
<linearGradient id="paint0_linear_1078_3158" x1="0" y1="21.1971" x2="30.3325" y2="21.1971" gradientUnits="userSpaceOnUse">
<stop offset="0.45" stop-color="#9F00AA"/>
<stop offset="0.47" stop-color="#9A00A9"/>
<stop offset="0.66" stop-color="#580097"/>
<stop offset="0.81" stop-color="#29008B"/>
<stop offset="0.93" stop-color="#0B0083"/>
<stop offset="1" stop-color="#000080"/>
</linearGradient>
<linearGradient id="paint1_linear_1078_3158" x1="21.1177" y1="23.7185" x2="32.8177" y2="23.7185" gradientUnits="userSpaceOnUse">
<stop offset="0.45" stop-color="#9F00AA"/>
<stop offset="0.47" stop-color="#9A00A9"/>
<stop offset="0.66" stop-color="#580097"/>
<stop offset="0.81" stop-color="#29008B"/>
<stop offset="0.93" stop-color="#0B0083"/>
<stop offset="1" stop-color="#000080"/>
</linearGradient>
<linearGradient id="paint2_linear_1078_3158" x1="17.9588" y1="21.4203" x2="46.0743" y2="21.4203" gradientUnits="userSpaceOnUse">
<stop offset="0.45" stop-color="#9F00AA"/>
<stop offset="0.47" stop-color="#9A00A9"/>
<stop offset="0.66" stop-color="#580097"/>
<stop offset="0.81" stop-color="#29008B"/>
<stop offset="0.93" stop-color="#0B0083"/>
<stop offset="1" stop-color="#000080"/>
</linearGradient>
<linearGradient id="paint3_linear_1078_3158" x1="2.86452" y1="6.5731" x2="8.58702" y2="6.5731" gradientUnits="userSpaceOnUse">
<stop offset="0.45" stop-color="#9F00AA"/>
<stop offset="0.47" stop-color="#9A00A9"/>
<stop offset="0.66" stop-color="#580097"/>
<stop offset="0.81" stop-color="#29008B"/>
<stop offset="0.93" stop-color="#0B0083"/>
<stop offset="1" stop-color="#000080"/>
</linearGradient>
<linearGradient id="paint4_linear_1078_3158" x1="40.0183" y1="17.9141" x2="49.3792" y2="17.9141" gradientUnits="userSpaceOnUse">
<stop offset="0.45" stop-color="#9F00AA"/>
<stop offset="0.47" stop-color="#9A00A9"/>
<stop offset="0.66" stop-color="#580097"/>
<stop offset="0.81" stop-color="#29008B"/>
<stop offset="0.93" stop-color="#0B0083"/>
<stop offset="1" stop-color="#000080"/>
</linearGradient>
<linearGradient id="paint5_linear_1078_3158" x1="40.0183" y1="21.5874" x2="49.3792" y2="21.5874" gradientUnits="userSpaceOnUse">
<stop offset="0.45" stop-color="#9F00AA"/>
<stop offset="0.47" stop-color="#9A00A9"/>
<stop offset="0.66" stop-color="#580097"/>
<stop offset="0.81" stop-color="#29008B"/>
<stop offset="0.93" stop-color="#0B0083"/>
<stop offset="1" stop-color="#000080"/>
</linearGradient>
<linearGradient id="paint6_linear_1078_3158" x1="40.0183" y1="25.2575" x2="49.3792" y2="25.2575" gradientUnits="userSpaceOnUse">
<stop offset="0.45" stop-color="#9F00AA"/>
<stop offset="0.47" stop-color="#9A00A9"/>
<stop offset="0.66" stop-color="#580097"/>
<stop offset="0.81" stop-color="#29008B"/>
<stop offset="0.93" stop-color="#0B0083"/>
<stop offset="1" stop-color="#000080"/>
</linearGradient>
<linearGradient id="paint7_linear_1078_3158" x1="40.0183" y1="28.9282" x2="49.3792" y2="28.9282" gradientUnits="userSpaceOnUse">
<stop offset="0.45" stop-color="#9F00AA"/>
<stop offset="0.47" stop-color="#9A00A9"/>
<stop offset="0.66" stop-color="#580097"/>
<stop offset="0.81" stop-color="#29008B"/>
<stop offset="0.93" stop-color="#0B0083"/>
<stop offset="1" stop-color="#000080"/>
</linearGradient>
<linearGradient id="paint8_linear_1078_3158" x1="40.0183" y1="32.602" x2="49.3792" y2="32.602" gradientUnits="userSpaceOnUse">
<stop offset="0.45" stop-color="#9F00AA"/>
<stop offset="0.47" stop-color="#9A00A9"/>
<stop offset="0.66" stop-color="#580097"/>
<stop offset="0.81" stop-color="#29008B"/>
<stop offset="0.93" stop-color="#0B0083"/>
<stop offset="1" stop-color="#000080"/>
</linearGradient>
<linearGradient id="paint9_linear_1078_3158" x1="40.0183" y1="36.2754" x2="49.3792" y2="36.2754" gradientUnits="userSpaceOnUse">
<stop offset="0.45" stop-color="#9F00AA"/>
<stop offset="0.47" stop-color="#9A00A9"/>
<stop offset="0.66" stop-color="#580097"/>
<stop offset="0.81" stop-color="#29008B"/>
<stop offset="0.93" stop-color="#0B0083"/>
<stop offset="1" stop-color="#000080"/>
</linearGradient>
<linearGradient id="paint10_linear_1078_3158" x1="68.8466" y1="21.8305" x2="290.271" y2="21.8305" gradientUnits="userSpaceOnUse">
<stop offset="0.62" stop-color="#9F00AA"/>
<stop offset="0.66" stop-color="#67009B"/>
<stop offset="0.71" stop-color="#1B0087"/>
<stop offset="0.88" stop-color="#000080"/>
</linearGradient>
<linearGradient id="paint11_linear_1078_3158" x1="68.8466" y1="21.8304" x2="290.271" y2="21.8304" gradientUnits="userSpaceOnUse">
<stop offset="0.62" stop-color="#9F00AA"/>
<stop offset="0.66" stop-color="#67009B"/>
<stop offset="0.71" stop-color="#1B0087"/>
<stop offset="0.88" stop-color="#000080"/>
</linearGradient>
<linearGradient id="paint12_linear_1078_3158" x1="68.8466" y1="21.8309" x2="290.271" y2="21.8309" gradientUnits="userSpaceOnUse">
<stop offset="0.62" stop-color="#9F00AA"/>
<stop offset="0.66" stop-color="#67009B"/>
<stop offset="0.71" stop-color="#1B0087"/>
<stop offset="0.88" stop-color="#000080"/>
</linearGradient>
<linearGradient id="paint13_linear_1078_3158" x1="68.8465" y1="21.8309" x2="290.271" y2="21.8309" gradientUnits="userSpaceOnUse">
<stop offset="0.62" stop-color="#9F00AA"/>
<stop offset="0.66" stop-color="#67009B"/>
<stop offset="0.71" stop-color="#1B0087"/>
<stop offset="0.88" stop-color="#000080"/>
</linearGradient>
<linearGradient id="paint14_linear_1078_3158" x1="68.8466" y1="21.8309" x2="290.271" y2="21.8309" gradientUnits="userSpaceOnUse">
<stop offset="0.62" stop-color="#9F00AA"/>
<stop offset="0.66" stop-color="#67009B"/>
<stop offset="0.71" stop-color="#1B0087"/>
<stop offset="0.88" stop-color="#000080"/>
</linearGradient>
<linearGradient id="paint15_linear_1078_3158" x1="68.8465" y1="21.8305" x2="290.271" y2="21.8305" gradientUnits="userSpaceOnUse">
<stop offset="0.62" stop-color="#9F00AA"/>
<stop offset="0.66" stop-color="#67009B"/>
<stop offset="0.71" stop-color="#1B0087"/>
<stop offset="0.88" stop-color="#000080"/>
</linearGradient>
<linearGradient id="paint16_linear_1078_3158" x1="68.8466" y1="21.8309" x2="290.271" y2="21.8309" gradientUnits="userSpaceOnUse">
<stop offset="0.62" stop-color="#9F00AA"/>
<stop offset="0.66" stop-color="#67009B"/>
<stop offset="0.71" stop-color="#1B0087"/>
<stop offset="0.88" stop-color="#000080"/>
</linearGradient>
<linearGradient id="paint17_linear_1078_3158" x1="68.8465" y1="21.8309" x2="290.271" y2="21.8309" gradientUnits="userSpaceOnUse">
<stop offset="0.62" stop-color="#9F00AA"/>
<stop offset="0.66" stop-color="#67009B"/>
<stop offset="0.71" stop-color="#1B0087"/>
<stop offset="0.88" stop-color="#000080"/>
</linearGradient>
<linearGradient id="paint18_linear_1078_3158" x1="68.8466" y1="21.8309" x2="290.271" y2="21.8309" gradientUnits="userSpaceOnUse">
<stop offset="0.62" stop-color="#9F00AA"/>
<stop offset="0.66" stop-color="#67009B"/>
<stop offset="0.71" stop-color="#1B0087"/>
<stop offset="0.88" stop-color="#000080"/>
</linearGradient>
<linearGradient id="paint19_linear_1078_3158" x1="68.8465" y1="21.8309" x2="290.271" y2="21.8309" gradientUnits="userSpaceOnUse">
<stop offset="0.62" stop-color="#9F00AA"/>
<stop offset="0.66" stop-color="#67009B"/>
<stop offset="0.71" stop-color="#1B0087"/>
<stop offset="0.88" stop-color="#000080"/>
</linearGradient>
</defs>
</svg>
