<svg width="851" height="126" viewBox="0 0 851 126" fill="none" xmlns="http://www.w3.org/2000/svg">
<path d="M78.9388 98.2137H72.1308L39.2992 26.4441L6.4676 98.2137H0L37.444 13.0713H41.4267L78.9388 98.2137ZM65.3228 98.2137H58.5148L54.0725 88.6377H23.828L19.3858 98.2137H12.9352L19.8794 82.9593H58.3446L65.3228 98.2137ZM22.5175 77.2809L39.146 40.9761L55.7065 77.2809H22.5175ZM31.6232 71.6025H46.2433L38.9247 55.5249L31.6232 71.6025Z" fill="url(#paint0_linear_1257_6219)"/>
<path d="M57.868 32.3408H78.9388V98.2136H85.4064V26.3096H54.9576L57.868 32.3408Z" fill="url(#paint1_linear_1257_6219)"/>
<path d="M46.7369 14.2637L50.1239 20.2948H113.796V26.3092H91.874V98.2132H98.3416V32.3404H119.906V32.2564V26.3092V20.2948V16.3469V14.2637H46.7369Z" fill="url(#paint2_linear_1257_6219)"/>
<path d="M14.9436 24.3458C13.424 24.4781 11.9035 24.103 10.6257 23.2805C9.34799 22.4579 8.38714 21.2357 7.89729 19.8098C7.57233 18.943 7.42601 18.0211 7.46692 17.0979C7.50784 16.1748 7.73518 15.269 8.13557 14.4337C8.69713 13.1145 9.64906 11.9933 10.8668 11.217C12.0846 10.4406 13.5114 10.0452 14.9606 10.0825C19.3177 10.2673 22.0069 12.7705 22.3303 16.2817C22.407 16.811 22.407 17.3484 22.3303 17.8778C22.0966 19.5443 21.2951 21.0829 20.0577 22.24C18.8204 23.3972 17.2208 24.1043 15.5223 24.245L14.9436 24.3458ZM14.9436 20.0282C15.7896 20.0327 16.6038 19.71 17.2115 19.129C17.8193 18.5479 18.1721 17.755 18.1944 16.9202C18.1209 16.1507 17.7483 15.4392 17.155 14.935C16.5615 14.4307 15.7934 14.1728 15.0117 14.2153C14.1986 14.2371 13.4203 14.5456 12.8177 15.0849C12.2152 15.6242 11.8282 16.3587 11.7268 17.1554C11.7829 17.9367 12.1374 18.668 12.7187 19.2013C13.3001 19.7345 14.0648 20.03 14.8585 20.0282H14.9436Z" fill="url(#paint3_linear_1257_6219)"/>
<path d="M119.838 50.0148L119.906 44.0508L104.145 44.0676L104.213 50.0148H119.838Z" fill="url(#paint4_linear_1257_6219)"/>
<path d="M104.213 59.6564H119.838L119.906 53.6924L104.145 53.7092L104.213 59.6564Z" fill="url(#paint5_linear_1257_6219)"/>
<path d="M104.213 69.2831H119.838L119.906 63.3359L104.145 63.3527L104.213 69.2831Z" fill="url(#paint6_linear_1257_6219)"/>
<path d="M104.213 78.9279H119.838L119.906 72.9639L104.145 72.9807L104.213 78.9279Z" fill="url(#paint7_linear_1257_6219)"/>
<path d="M104.213 88.5695H119.838L119.906 82.6055L104.145 82.6223L104.213 88.5695Z" fill="url(#paint8_linear_1257_6219)"/>
<path d="M104.213 98.213H119.838L119.906 92.249L104.145 92.2658L104.213 98.213Z" fill="url(#paint9_linear_1257_6219)"/>
<path d="M255.691 97.9942H249.071L217.26 28.4254L185.518 97.9942H179.238L216.92 15.4727H217.958L255.691 97.9942ZM242.45 97.9942H235.846L231.472 88.7038H202.283L197.994 97.9942H191.713L198.521 83.2102H235.795L242.45 97.9942ZM201.006 77.6998L217.141 42.5206L233.174 77.6998H201.006ZM209.823 72.2398H224L216.92 56.6494L209.823 72.2398Z" fill="url(#paint10_linear_1257_6219)"/>
<path d="M324.776 83.7823L328.384 88.3687C320.667 95.3792 310.533 99.2241 300.046 99.1208C294.468 99.2034 288.933 98.1579 283.783 96.0487C278.631 93.9395 273.971 90.8113 270.09 86.8568C266.084 83.0265 262.915 78.4272 260.779 73.342C258.641 68.2566 257.582 62.7934 257.666 57.2887C257.582 51.7841 258.641 46.3207 260.779 41.2355C262.915 36.1503 266.084 31.5508 270.09 27.7207C273.971 23.7662 278.631 20.6379 283.783 18.5286C288.933 16.4195 294.468 15.374 300.046 15.4567C310.363 15.375 320.34 19.0951 328.026 25.8895L324.435 30.4759C317.746 24.5256 309.049 21.2544 300.046 21.3031C295.285 21.2346 290.562 22.1346 286.169 23.9468C281.778 25.7592 277.811 28.4448 274.516 31.8367C271.086 35.1437 268.375 39.1063 266.548 43.4825C264.722 47.8586 263.82 52.5564 263.895 57.2887C263.82 62.021 264.722 66.7188 266.548 71.095C268.375 75.4711 271.086 79.4338 274.516 82.7408C277.811 86.1325 281.778 88.8183 286.169 90.6305C290.562 92.4428 295.285 93.3427 300.046 93.2744C309.223 93.3857 318.085 89.9837 324.776 83.7823ZM317.695 74.7272L321.304 79.3136C315.529 84.603 307.924 87.5123 300.046 87.4447C296.102 87.493 292.191 86.7291 288.562 85.2018C284.935 83.6745 281.669 81.4172 278.975 78.5744C276.146 75.7892 273.911 72.4714 272.405 68.8179C270.901 65.1643 270.153 61.2493 270.209 57.3055C270.153 53.3641 270.899 49.4516 272.405 45.8006C273.911 42.1496 276.144 38.835 278.975 36.0535C281.666 33.2049 284.93 30.943 288.559 29.4125C292.187 27.8822 296.1 27.117 300.046 27.1663C307.745 27.1445 315.185 29.919 320.946 34.9615L317.355 39.5479C312.537 35.439 306.413 33.1267 300.046 33.0127C296.919 32.9618 293.818 33.5574 290.94 34.761C288.06 35.9647 285.47 37.7498 283.332 40.0015C281.084 42.2909 279.324 45.0016 278.154 47.9737C276.985 50.9456 276.43 54.1186 276.524 57.3055C276.43 60.4923 276.985 63.6655 278.154 66.6374C279.324 69.6094 281.084 72.32 283.332 74.6096C285.466 76.8646 288.058 78.652 290.936 79.8559C293.816 81.0597 296.919 81.6533 300.046 81.5983C306.58 81.5036 312.855 79.0607 317.695 74.7272Z" fill="url(#paint11_linear_1257_6219)"/>
<path d="M394.217 16.6162V22.4626H333.592V16.6162H394.217ZM360.824 97.9954H354.561V34.1554H333.592V28.309H360.824V97.9954ZM373.368 97.9954H367.104V28.309H394.336V34.1554H373.317L373.368 97.9954Z" fill="url(#paint12_linear_1257_6219)"/>
<path d="M416.275 97.9954H410.012V16.6162H416.275V97.9954ZM428.819 97.9954H422.556V16.6162H428.904L428.819 97.9954Z" fill="url(#paint13_linear_1257_6219)"/>
<path d="M511.145 16.6162H517.408L479.675 99.121H478.636L440.818 16.6162H447.439L479.266 86.185L511.145 16.6162ZM498.601 16.6162H504.864L479.436 72.0562L454.128 16.6162H460.748L479.675 57.9946L498.601 16.6162Z" fill="url(#paint14_linear_1257_6219)"/>
<path d="M580.927 97.9942H574.306L542.495 28.4254L510.685 97.9942H504.405L542.138 15.4727H543.193L580.927 97.9942ZM567.685 97.9942H561.064L556.775 88.7038H527.518L523.212 97.9942H516.949L523.757 83.2102H561.03L567.685 97.9942ZM526.241 77.6998L542.376 42.5206L558.392 77.6998H526.241ZM535.058 72.2398H549.218L542.138 56.6494L535.058 72.2398Z" fill="url(#paint15_linear_1257_6219)"/>
<path d="M637.467 16.6162V22.4626H576.859V16.6162H637.467ZM604.04 97.9954H597.759V34.1554H576.859V28.309H604.091L604.04 97.9954ZM616.567 97.9954H610.303V28.309H637.535V34.1554H616.567V97.9954Z" fill="url(#paint16_linear_1257_6219)"/>
<path d="M717.818 97.9954H710.857L689.957 67.7554C694.501 66.0325 698.422 63.0151 701.224 59.0866C703.695 55.5256 705.014 51.3073 705.002 46.9906C705.002 39.2851 702.33 33.209 696.986 28.7626C691.642 24.3163 684.795 22.0762 676.443 22.0426H659.593V97.9954H653.33V16.6162H676.375C686.587 16.6162 695.007 19.3099 701.632 24.697C708.258 30.0842 711.567 37.5322 711.555 47.041C711.579 51.5234 710.36 55.9268 708.032 59.7754C705.602 63.7734 702.189 67.1017 698.109 69.4522L717.818 97.9954ZM696.918 97.9954L672.069 62.161V97.9954H665.805V27.6202H676.375C682.1 27.3875 687.715 29.221 692.169 32.7778C694.225 34.5374 695.847 36.7367 696.911 39.2085C697.977 41.6801 698.457 44.3589 698.314 47.041C698.363 51.3725 696.773 55.5661 693.854 58.801C690.503 62.3449 685.998 64.616 681.123 65.2186L703.896 97.9954H696.918ZM676.375 33.1306H672.069V60.9682H675.558C680.744 60.9682 684.715 59.7082 687.472 57.1882C688.873 55.8956 689.975 54.3201 690.704 52.569C691.432 50.8179 691.769 48.9325 691.693 47.041C691.798 45.1372 691.471 43.2343 690.74 41.4703C690.006 39.7064 688.884 38.1257 687.455 36.8434C684.361 34.2824 680.408 32.9579 676.375 33.1306Z" fill="url(#paint17_linear_1257_6219)"/>
<path d="M778.086 92.149V97.9954H731.4V16.6162H778.086V22.4626H737.681V92.149H778.086ZM775.755 46.789V52.6354H743.944V28.309H778.086V34.1554H750.225V46.7554L775.755 46.789ZM778.086 80.4898V86.3362H743.944V58.4482H775.755V64.2946H750.225V80.4562L778.086 80.4898Z" fill="url(#paint18_linear_1257_6219)"/>
<path d="M843.681 92.149V97.9954H797.013V16.6162H843.681V22.4626H803.344V92.149H843.681ZM841.367 46.789V52.6354H809.556V28.309H843.681V34.1554H815.82V46.7554L841.367 46.789ZM843.681 80.4898V86.3362H809.556V58.4482H841.367V64.2946H815.837V80.4562L843.681 80.4898Z" fill="url(#paint19_linear_1257_6219)"/>
<path d="M156.992 54.8844C156.771 68.3244 156.55 81.6132 156.329 94.8852C155.035 92.6676 155.767 22.0236 156.941 20.1924C156.754 32.07 157.758 43.3596 156.992 54.8844Z" fill="#000080"/>
<defs>
<linearGradient id="paint0_linear_1257_6219" x1="0" y1="55.6425" x2="78.9388" y2="55.6425" gradientUnits="userSpaceOnUse">
<stop offset="0.45" stop-color="#9F00AA"/>
<stop offset="0.47" stop-color="#9A00A9"/>
<stop offset="0.66" stop-color="#580097"/>
<stop offset="0.81" stop-color="#29008B"/>
<stop offset="0.93" stop-color="#0B0083"/>
<stop offset="1" stop-color="#000080"/>
</linearGradient>
<linearGradient id="paint1_linear_1257_6219" x1="54.9576" y1="62.2616" x2="85.4064" y2="62.2616" gradientUnits="userSpaceOnUse">
<stop offset="0.45" stop-color="#9F00AA"/>
<stop offset="0.47" stop-color="#9A00A9"/>
<stop offset="0.66" stop-color="#580097"/>
<stop offset="0.81" stop-color="#29008B"/>
<stop offset="0.93" stop-color="#0B0083"/>
<stop offset="1" stop-color="#000080"/>
</linearGradient>
<linearGradient id="paint2_linear_1257_6219" x1="46.7369" y1="56.23" x2="119.906" y2="56.23" gradientUnits="userSpaceOnUse">
<stop offset="0.45" stop-color="#9F00AA"/>
<stop offset="0.47" stop-color="#9A00A9"/>
<stop offset="0.66" stop-color="#580097"/>
<stop offset="0.81" stop-color="#29008B"/>
<stop offset="0.93" stop-color="#0B0083"/>
<stop offset="1" stop-color="#000080"/>
</linearGradient>
<linearGradient id="paint3_linear_1257_6219" x1="7.45477" y1="17.2562" x2="22.3473" y2="17.2562" gradientUnits="userSpaceOnUse">
<stop offset="0.45" stop-color="#9F00AA"/>
<stop offset="0.47" stop-color="#9A00A9"/>
<stop offset="0.66" stop-color="#580097"/>
<stop offset="0.81" stop-color="#29008B"/>
<stop offset="0.93" stop-color="#0B0083"/>
<stop offset="1" stop-color="#000080"/>
</linearGradient>
<linearGradient id="paint4_linear_1257_6219" x1="104.145" y1="47.0244" x2="128.507" y2="47.0244" gradientUnits="userSpaceOnUse">
<stop offset="0.45" stop-color="#9F00AA"/>
<stop offset="0.47" stop-color="#9A00A9"/>
<stop offset="0.66" stop-color="#580097"/>
<stop offset="0.81" stop-color="#29008B"/>
<stop offset="0.93" stop-color="#0B0083"/>
<stop offset="1" stop-color="#000080"/>
</linearGradient>
<linearGradient id="paint5_linear_1257_6219" x1="104.145" y1="56.666" x2="128.507" y2="56.666" gradientUnits="userSpaceOnUse">
<stop offset="0.45" stop-color="#9F00AA"/>
<stop offset="0.47" stop-color="#9A00A9"/>
<stop offset="0.66" stop-color="#580097"/>
<stop offset="0.81" stop-color="#29008B"/>
<stop offset="0.93" stop-color="#0B0083"/>
<stop offset="1" stop-color="#000080"/>
</linearGradient>
<linearGradient id="paint6_linear_1257_6219" x1="104.145" y1="66.3012" x2="128.507" y2="66.3012" gradientUnits="userSpaceOnUse">
<stop offset="0.45" stop-color="#9F00AA"/>
<stop offset="0.47" stop-color="#9A00A9"/>
<stop offset="0.66" stop-color="#580097"/>
<stop offset="0.81" stop-color="#29008B"/>
<stop offset="0.93" stop-color="#0B0083"/>
<stop offset="1" stop-color="#000080"/>
</linearGradient>
<linearGradient id="paint7_linear_1257_6219" x1="104.145" y1="75.9375" x2="128.507" y2="75.9375" gradientUnits="userSpaceOnUse">
<stop offset="0.45" stop-color="#9F00AA"/>
<stop offset="0.47" stop-color="#9A00A9"/>
<stop offset="0.66" stop-color="#580097"/>
<stop offset="0.81" stop-color="#29008B"/>
<stop offset="0.93" stop-color="#0B0083"/>
<stop offset="1" stop-color="#000080"/>
</linearGradient>
<linearGradient id="paint8_linear_1257_6219" x1="104.145" y1="85.5791" x2="128.507" y2="85.5791" gradientUnits="userSpaceOnUse">
<stop offset="0.45" stop-color="#9F00AA"/>
<stop offset="0.47" stop-color="#9A00A9"/>
<stop offset="0.66" stop-color="#580097"/>
<stop offset="0.81" stop-color="#29008B"/>
<stop offset="0.93" stop-color="#0B0083"/>
<stop offset="1" stop-color="#000080"/>
</linearGradient>
<linearGradient id="paint9_linear_1257_6219" x1="104.145" y1="95.2226" x2="128.507" y2="95.2226" gradientUnits="userSpaceOnUse">
<stop offset="0.45" stop-color="#9F00AA"/>
<stop offset="0.47" stop-color="#9A00A9"/>
<stop offset="0.66" stop-color="#580097"/>
<stop offset="0.81" stop-color="#29008B"/>
<stop offset="0.93" stop-color="#0B0083"/>
<stop offset="1" stop-color="#000080"/>
</linearGradient>
<linearGradient id="paint10_linear_1257_6219" x1="179.17" y1="57.3046" x2="755.416" y2="57.3046" gradientUnits="userSpaceOnUse">
<stop offset="0.62" stop-color="#9F00AA"/>
<stop offset="0.66" stop-color="#67009B"/>
<stop offset="0.71" stop-color="#1B0087"/>
<stop offset="0.88" stop-color="#000080"/>
</linearGradient>
<linearGradient id="paint11_linear_1257_6219" x1="179.17" y1="57.3055" x2="755.416" y2="57.3055" gradientUnits="userSpaceOnUse">
<stop offset="0.62" stop-color="#9F00AA"/>
<stop offset="0.66" stop-color="#67009B"/>
<stop offset="0.71" stop-color="#1B0087"/>
<stop offset="0.88" stop-color="#000080"/>
</linearGradient>
<linearGradient id="paint12_linear_1257_6219" x1="179.17" y1="57.3058" x2="755.416" y2="57.3058" gradientUnits="userSpaceOnUse">
<stop offset="0.62" stop-color="#9F00AA"/>
<stop offset="0.66" stop-color="#67009B"/>
<stop offset="0.71" stop-color="#1B0087"/>
<stop offset="0.88" stop-color="#000080"/>
</linearGradient>
<linearGradient id="paint13_linear_1257_6219" x1="179.169" y1="57.3058" x2="755.416" y2="57.3058" gradientUnits="userSpaceOnUse">
<stop offset="0.62" stop-color="#9F00AA"/>
<stop offset="0.66" stop-color="#67009B"/>
<stop offset="0.71" stop-color="#1B0087"/>
<stop offset="0.88" stop-color="#000080"/>
</linearGradient>
<linearGradient id="paint14_linear_1257_6219" x1="179.17" y1="57.3058" x2="755.416" y2="57.3058" gradientUnits="userSpaceOnUse">
<stop offset="0.62" stop-color="#9F00AA"/>
<stop offset="0.66" stop-color="#67009B"/>
<stop offset="0.71" stop-color="#1B0087"/>
<stop offset="0.88" stop-color="#000080"/>
</linearGradient>
<linearGradient id="paint15_linear_1257_6219" x1="179.169" y1="57.3046" x2="755.416" y2="57.3046" gradientUnits="userSpaceOnUse">
<stop offset="0.62" stop-color="#9F00AA"/>
<stop offset="0.66" stop-color="#67009B"/>
<stop offset="0.71" stop-color="#1B0087"/>
<stop offset="0.88" stop-color="#000080"/>
</linearGradient>
<linearGradient id="paint16_linear_1257_6219" x1="179.17" y1="57.3058" x2="755.416" y2="57.3058" gradientUnits="userSpaceOnUse">
<stop offset="0.62" stop-color="#9F00AA"/>
<stop offset="0.66" stop-color="#67009B"/>
<stop offset="0.71" stop-color="#1B0087"/>
<stop offset="0.88" stop-color="#000080"/>
</linearGradient>
<linearGradient id="paint17_linear_1257_6219" x1="179.169" y1="57.3058" x2="755.416" y2="57.3058" gradientUnits="userSpaceOnUse">
<stop offset="0.62" stop-color="#9F00AA"/>
<stop offset="0.66" stop-color="#67009B"/>
<stop offset="0.71" stop-color="#1B0087"/>
<stop offset="0.88" stop-color="#000080"/>
</linearGradient>
<linearGradient id="paint18_linear_1257_6219" x1="179.17" y1="57.3058" x2="755.416" y2="57.3058" gradientUnits="userSpaceOnUse">
<stop offset="0.62" stop-color="#9F00AA"/>
<stop offset="0.66" stop-color="#67009B"/>
<stop offset="0.71" stop-color="#1B0087"/>
<stop offset="0.88" stop-color="#000080"/>
</linearGradient>
<linearGradient id="paint19_linear_1257_6219" x1="179.169" y1="57.3058" x2="755.416" y2="57.3058" gradientUnits="userSpaceOnUse">
<stop offset="0.62" stop-color="#9F00AA"/>
<stop offset="0.66" stop-color="#67009B"/>
<stop offset="0.71" stop-color="#1B0087"/>
<stop offset="0.88" stop-color="#000080"/>
</linearGradient>
</defs>
</svg>
