<svg width="16" height="17" viewBox="0 0 16 17" fill="none" xmlns="http://www.w3.org/2000/svg">
<g clip-path="url(#clip0_4359_7510)">
<path d="M13.5 2.5H2.5C2.10218 2.5 1.72064 2.65804 1.43934 2.93934C1.15804 3.22064 1 3.60218 1 4V5.5C1.00087 5.80947 1.09744 6.1111 1.27647 6.36353C1.4555 6.61596 1.70823 6.80684 2 6.91V14C2 14.3978 2.15804 14.7794 2.43934 15.0607C2.72064 15.342 3.10218 15.5 3.5 15.5H12.5C12.8978 15.5 13.2794 15.342 13.5607 15.0607C13.842 14.7794 14 14.3978 14 14V6.91C14.2918 6.80684 14.5445 6.61596 14.7235 6.36353C14.9026 6.1111 14.9991 5.80947 15 5.5V4C15 3.60218 14.842 3.22064 14.5607 2.93934C14.2794 2.65804 13.8978 2.5 13.5 2.5ZM13 14C13 14.1326 12.9473 14.2598 12.8536 14.3536C12.7598 14.4473 12.6326 14.5 12.5 14.5H3.5C3.36739 14.5 3.24021 14.4473 3.14645 14.3536C3.05268 14.2598 3 14.1326 3 14V7H13V14ZM14 5.5C14 5.63261 13.9473 5.75979 13.8536 5.85355C13.7598 5.94732 13.6326 6 13.5 6H2.5C2.36739 6 2.24021 5.94732 2.14645 5.85355C2.05268 5.75979 2 5.63261 2 5.5V4C2 3.86739 2.05268 3.74021 2.14645 3.64645C2.24021 3.55268 2.36739 3.5 2.5 3.5H13.5C13.6326 3.5 13.7598 3.55268 13.8536 3.64645C13.9473 3.74021 14 3.86739 14 4V5.5Z" fill="#131010"/>
<path d="M6.5 9.5H9.5C9.63261 9.5 9.75979 9.44732 9.85355 9.35355C9.94732 9.25979 10 9.13261 10 9C10 8.86739 9.94732 8.74021 9.85355 8.64645C9.75979 8.55268 9.63261 8.5 9.5 8.5H6.5C6.36739 8.5 6.24021 8.55268 6.14645 8.64645C6.05268 8.74021 6 8.86739 6 9C6 9.13261 6.05268 9.25979 6.14645 9.35355C6.24021 9.44732 6.36739 9.5 6.5 9.5Z" fill="#131010"/>
</g>
<defs>
<clipPath id="clip0_4359_7510">
<rect width="16" height="16" fill="white" transform="translate(0 0.5)"/>
</clipPath>
</defs>
</svg>
