<svg width="22" height="22" viewBox="0 0 22 22" fill="none" xmlns="http://www.w3.org/2000/svg">
<path fill-rule="evenodd" clip-rule="evenodd" d="M1.14575 6.41634C1.14575 3.50534 3.50558 1.14551 6.41659 1.14551H15.5833C18.4942 1.14551 20.8541 3.50534 20.8541 6.41634V15.583C20.8541 18.494 18.4942 20.8538 15.5833 20.8538H10.5416C10.1619 20.8538 9.85409 20.546 9.85409 20.1663C9.85409 19.7867 10.1619 19.4788 10.5416 19.4788H15.5833C17.7349 19.4788 19.4791 17.7346 19.4791 15.583V6.41634C19.4791 4.26473 17.7349 2.52051 15.5833 2.52051H6.41659C4.26498 2.52051 2.52075 4.26473 2.52075 6.41634V15.583C2.52075 17.7346 4.26498 19.4788 6.41659 19.4788H6.87492C7.25461 19.4788 7.56242 19.7867 7.56242 20.1663C7.56242 20.546 7.25461 20.8538 6.87492 20.8538H6.41659C3.50558 20.8538 1.14575 18.494 1.14575 15.583V6.41634Z" fill="#2D2E2E"/>
<path fill-rule="evenodd" clip-rule="evenodd" d="M11 4.8125C11.3797 4.8125 11.6875 5.12031 11.6875 5.5V16.5C11.6875 16.8797 11.3797 17.1875 11 17.1875C10.6203 17.1875 10.3125 16.8797 10.3125 16.5V5.5C10.3125 5.12031 10.6203 4.8125 11 4.8125Z" fill="#2D2E2E"/>
<path fill-rule="evenodd" clip-rule="evenodd" d="M4.8125 11C4.8125 10.6203 5.12031 10.3125 5.5 10.3125H16.5C16.8797 10.3125 17.1875 10.6203 17.1875 11C17.1875 11.3797 16.8797 11.6875 16.5 11.6875H5.5C5.12031 11.6875 4.8125 11.3797 4.8125 11Z" fill="#2D2E2E"/>
</svg>
