<svg width="16" height="17" viewBox="0 0 16 17" fill="none" xmlns="http://www.w3.org/2000/svg">
<path d="M12.667 5.16675C12.4902 5.16675 12.3206 5.23699 12.1956 5.36201C12.0706 5.48703 12.0003 5.6566 12.0003 5.83341V13.2941C11.9812 13.6312 11.8296 13.9471 11.5787 14.173C11.3277 14.3989 10.9976 14.5165 10.6603 14.5001H5.34033C5.00306 14.5165 4.67298 14.3989 4.422 14.173C4.17101 13.9471 4.01945 13.6312 4.00033 13.2941V5.83341C4.00033 5.6566 3.93009 5.48703 3.80506 5.36201C3.68004 5.23699 3.51047 5.16675 3.33366 5.16675C3.15685 5.16675 2.98728 5.23699 2.86225 5.36201C2.73723 5.48703 2.66699 5.6566 2.66699 5.83341V13.2941C2.68602 13.9849 2.97805 14.64 3.47911 15.116C3.98018 15.5919 4.64944 15.8499 5.34033 15.8334H10.6603C11.3512 15.8499 12.0205 15.5919 12.5215 15.116C13.0226 14.64 13.3146 13.9849 13.3337 13.2941V5.83341C13.3337 5.6566 13.2634 5.48703 13.1384 5.36201C13.0134 5.23699 12.8438 5.16675 12.667 5.16675Z" fill="#131010"/>
<path d="M13.3333 3.16675H10.6667V1.83341C10.6667 1.6566 10.5964 1.48703 10.4714 1.36201C10.3464 1.23699 10.1768 1.16675 10 1.16675H6C5.82319 1.16675 5.65362 1.23699 5.5286 1.36201C5.40357 1.48703 5.33333 1.6566 5.33333 1.83341V3.16675H2.66667C2.48986 3.16675 2.32029 3.23699 2.19526 3.36201C2.07024 3.48703 2 3.6566 2 3.83341C2 4.01023 2.07024 4.1798 2.19526 4.30482C2.32029 4.42984 2.48986 4.50008 2.66667 4.50008H13.3333C13.5101 4.50008 13.6797 4.42984 13.8047 4.30482C13.9298 4.1798 14 4.01023 14 3.83341C14 3.6566 13.9298 3.48703 13.8047 3.36201C13.6797 3.23699 13.5101 3.16675 13.3333 3.16675ZM6.66667 3.16675V2.50008H9.33333V3.16675H6.66667Z" fill="#131010"/>
<path d="M7.33333 11.8333V7.16667C7.33333 6.98986 7.2631 6.82029 7.13807 6.69526C7.01305 6.57024 6.84348 6.5 6.66667 6.5C6.48986 6.5 6.32029 6.57024 6.19526 6.69526C6.07024 6.82029 6 6.98986 6 7.16667V11.8333C6 12.0101 6.07024 12.1797 6.19526 12.3047C6.32029 12.4298 6.48986 12.5 6.66667 12.5C6.84348 12.5 7.01305 12.4298 7.13807 12.3047C7.2631 12.1797 7.33333 12.0101 7.33333 11.8333Z" fill="#131010"/>
<path d="M10.0003 11.8333V7.16667C10.0003 6.98986 9.93009 6.82029 9.80506 6.69526C9.68004 6.57024 9.51047 6.5 9.33366 6.5C9.15685 6.5 8.98728 6.57024 8.86225 6.69526C8.73723 6.82029 8.66699 6.98986 8.66699 7.16667V11.8333C8.66699 12.0101 8.73723 12.1797 8.86225 12.3047C8.98728 12.4298 9.15685 12.5 9.33366 12.5C9.51047 12.5 9.68004 12.4298 9.80506 12.3047C9.93009 12.1797 10.0003 12.0101 10.0003 11.8333Z" fill="#131010"/>
</svg>
