<svg width="16" height="17" viewBox="0 0 16 17" fill="none" xmlns="http://www.w3.org/2000/svg">
<path d="M12.5 8.5C12.2238 8.5 12 8.72386 12 9.00001V14C12 14.2761 11.7761 14.5 11.5 14.5H2.5C2.22385 14.5 1.99999 14.2761 1.99999 14V4C1.99999 3.72385 2.22385 3.49999 2.5 3.49999H8.5C8.77615 3.49999 9.00001 3.27613 9.00001 2.99998C9.00001 2.72383 8.77615 2.5 8.5 2.5H2.5C1.67157 2.5 1 3.17157 1 4V14C1 14.8284 1.67157 15.5 2.5 15.5H11.5C12.3284 15.5 13 14.8284 13 14V8.99998C13 8.72386 12.7761 8.5 12.5 8.5Z" fill="#131010"/>
<path d="M14.4395 2.06094C14.0804 1.70187 13.5935 1.50019 13.0858 1.50025C12.5777 1.49879 12.0903 1.70082 11.7323 2.06126L5.14625 8.64672C5.09161 8.70177 5.05039 8.76869 5.02575 8.84222L4.02576 11.8422C3.93849 12.1042 4.08014 12.3873 4.34214 12.4746C4.39297 12.4915 4.4462 12.5002 4.49976 12.5002C4.55343 12.5001 4.60678 12.4915 4.65775 12.4747L7.65775 11.4748C7.73144 11.4501 7.79838 11.4087 7.85325 11.3538L14.4392 4.76776C15.1868 4.02034 15.1868 2.80844 14.4395 2.06094ZM13.7323 4.06124L7.23225 10.5612L5.29024 11.2097L5.93674 9.27022L12.4392 2.77024C12.7967 2.41346 13.3758 2.41405 13.7325 2.77153C13.903 2.9423 13.999 3.17348 13.9997 3.41474C14.0003 3.65729 13.904 3.89003 13.7323 4.06124Z" fill="#131010"/>
</svg>
