<svg width="22" height="22" viewBox="0 0 22 22" fill="none" xmlns="http://www.w3.org/2000/svg">
<path fill-rule="evenodd" clip-rule="evenodd" d="M9.97433 2.53846C8.13338 2.53846 6.641 4.03084 6.641 5.87179C6.641 7.71275 8.13338 9.20513 9.97433 9.20513C11.8153 9.20513 13.3077 7.71275 13.3077 5.87179C13.3077 4.03084 11.8153 2.53846 9.97433 2.53846ZM5.10254 5.87179C5.10254 3.18118 7.28372 1 9.97433 1C12.665 1 14.8461 3.18118 14.8461 5.87179C14.8461 8.56241 12.665 10.7436 9.97433 10.7436C7.28372 10.7436 5.10254 8.56241 5.10254 5.87179Z" fill="#2D2E2E"/>
<path fill-rule="evenodd" clip-rule="evenodd" d="M9.97436 12.7953C8.98687 12.7953 8.0461 12.9874 7.18606 13.3355C6.79227 13.4949 6.34382 13.3049 6.18441 12.9111C6.025 12.5173 6.21501 12.0688 6.60881 11.9095C7.64914 11.4883 8.78566 11.2568 9.97436 11.2568C14.9308 11.2568 18.9487 15.2748 18.9487 20.2312C18.9487 20.656 18.6043 21.0004 18.1795 21.0004H1.76923C1.3444 21.0004 1 20.656 1 20.2312C1 18.5979 1.43705 17.0642 2.20108 15.7435C2.41381 15.3757 2.88437 15.2501 3.2521 15.4628C3.61985 15.6755 3.74551 16.1461 3.53278 16.5138C3.02171 17.3972 2.68717 18.3957 2.57771 19.462H17.371C16.9861 15.7166 13.8213 12.7953 9.97436 12.7953Z" fill="#2D2E2E"/>
<path fill-rule="evenodd" clip-rule="evenodd" d="M14.3333 9.97431C14.3333 9.54949 14.6777 9.20508 15.1025 9.20508H20.2307C20.6555 9.20508 20.9999 9.54949 20.9999 9.97431C20.9999 10.3991 20.6555 10.7435 20.2307 10.7435H15.1025C14.6777 10.7435 14.3333 10.3991 14.3333 9.97431Z" fill="#2D2E2E"/>
<path fill-rule="evenodd" clip-rule="evenodd" d="M17.6667 13.3083C17.2419 13.3083 16.8975 12.9639 16.8975 12.539V7.41083C16.8975 6.986 17.2419 6.6416 17.6667 6.6416C18.0915 6.6416 18.4359 6.986 18.4359 7.41083V12.539C18.4359 12.9639 18.0915 13.3083 17.6667 13.3083Z" fill="#2D2E2E"/>
</svg>
