<svg width="22" height="22" viewBox="0 0 22 22" fill="none" xmlns="http://www.w3.org/2000/svg">
<g clip-path="url(#clip0_4283_6826)">
<path fill-rule="evenodd" clip-rule="evenodd" d="M11 1.53488C5.77254 1.53488 1.53488 5.77254 1.53488 11C1.53488 16.2273 5.77254 20.465 11 20.465C16.2273 20.465 20.465 16.2273 20.465 11C20.465 8.86829 19.7612 6.9032 18.5732 5.32135C18.3186 4.98246 18.3869 4.50138 18.7258 4.24683C19.0647 3.99228 19.5458 4.06065 19.8003 4.39954C21.1813 6.23806 21.9999 8.52452 21.9999 11C21.9999 17.0751 17.0751 21.9999 11 21.9999C4.92485 21.9999 0 17.0751 0 11C0 4.92485 4.92485 0 11 0C12.563 0 14.0517 0.326458 15.4003 0.915626C15.7886 1.08532 15.9659 1.53774 15.7962 1.92614C15.6265 2.31452 15.1741 2.49181 14.7857 2.32212C13.6274 1.81602 12.3475 1.53488 11 1.53488Z" fill="#2D2E2E"/>
<path fill-rule="evenodd" clip-rule="evenodd" d="M11.0001 4.86007C9.16346 4.86007 7.67453 6.34898 7.67453 8.18564C7.67453 10.0223 9.16346 11.5112 11.0001 11.5112C12.8367 11.5112 14.3257 10.0223 14.3257 8.18564C14.3257 6.34898 12.8367 4.86007 11.0001 4.86007ZM6.13965 8.18564C6.13965 5.50129 8.31575 3.3252 11.0001 3.3252C13.6845 3.3252 15.8605 5.50129 15.8605 8.18564C15.8605 10.87 13.6845 13.0461 11.0001 13.0461C8.31575 13.0461 6.13965 10.87 6.13965 8.18564Z" fill="#2D2E2E"/>
<path fill-rule="evenodd" clip-rule="evenodd" d="M4.09302 16.628C4.09302 13.9436 6.26912 11.7676 8.95346 11.7676H13.0465C15.7309 11.7676 17.9069 13.9436 17.9069 16.628V19.1862C17.9069 19.61 17.5633 19.9536 17.1395 19.9536C16.7156 19.9536 16.372 19.61 16.372 19.1862V16.628C16.372 14.7914 14.8831 13.3025 13.0465 13.3025H8.95346C7.1168 13.3025 5.6279 14.7914 5.6279 16.628V19.1862C5.6279 19.61 5.2843 19.9536 4.86046 19.9536C4.43662 19.9536 4.09302 19.61 4.09302 19.1862V16.628Z" fill="#2D2E2E"/>
<path fill-rule="evenodd" clip-rule="evenodd" d="M14.0697 15.8604C14.4935 15.8604 14.8371 16.204 14.8371 16.6278V20.7208C14.8371 21.1446 14.4935 21.4882 14.0697 21.4882C13.6459 21.4882 13.3022 21.1446 13.3022 20.7208V16.6278C13.3022 16.204 13.6459 15.8604 14.0697 15.8604Z" fill="#2D2E2E"/>
<path fill-rule="evenodd" clip-rule="evenodd" d="M7.93028 15.8604C8.35412 15.8604 8.69772 16.204 8.69772 16.6278V20.7208C8.69772 21.1446 8.35412 21.4882 7.93028 21.4882C7.50644 21.4882 7.16284 21.1446 7.16284 20.7208V16.6278C7.16284 16.204 7.50644 15.8604 7.93028 15.8604Z" fill="#2D2E2E"/>
</g>
<defs>
<clipPath id="clip0_4283_6826">
<rect width="22" height="22" fill="white"/>
</clipPath>
</defs>
</svg>
