<svg width="257" height="33" viewBox="0 0 257 33" fill="none" xmlns="http://www.w3.org/2000/svg">
<path d="M30.2504 32.3313H27.7064L15.4831 5.82891L3.286 32.3313H0.872734L15.3523 0.894531H15.7512L30.2504 32.3313ZM25.1623 32.3313H22.6248L20.944 28.7921H9.7279L8.07982 32.3313H5.66656L8.28256 26.6993H22.6052L25.1623 32.3313ZM9.2374 24.6001L15.4373 11.1985L21.598 24.6001H9.2374ZM12.6251 22.5201H18.0729L15.3523 16.5809L12.6251 22.5201Z" fill="url(#paint0_linear_2376_5253)"/>
<path d="M56.7963 26.9168L58.1828 28.664C55.2175 31.3346 51.3236 32.7993 47.2937 32.76C45.1505 32.7915 43.0237 32.3932 41.0447 31.5897C39.065 30.7862 37.2744 29.5945 35.7833 28.088C34.2437 26.6288 33.026 24.8767 32.2052 22.9395C31.3838 21.0022 30.977 18.921 31.0091 16.824C30.977 14.727 31.3838 12.6457 32.2052 10.7085C33.026 8.77125 34.2437 7.01905 35.7833 5.55998C37.2744 4.05349 39.065 2.86174 41.0447 2.05822C43.0237 1.25474 45.1505 0.856463 47.2937 0.887963C51.2582 0.856853 55.092 2.27403 58.0454 4.86238L56.6655 6.60958C54.0953 4.34277 50.7533 3.09662 47.2937 3.11518C45.4644 3.08907 43.6496 3.43192 41.9616 4.12229C40.2743 4.81272 38.7498 5.83582 37.4837 7.12798C36.1658 8.38776 35.124 9.89733 34.4223 11.5645C33.7205 13.2315 33.3739 15.0212 33.4027 16.824C33.3739 18.6267 33.7205 20.4164 34.4223 22.0835C35.124 23.7506 36.1658 25.2602 37.4837 26.52C38.7498 27.8121 40.2743 28.8352 41.9616 29.5256C43.6496 30.216 45.4644 30.5588 47.2937 30.5328C50.82 30.5752 54.2254 29.2792 56.7963 26.9168ZM54.0756 23.4672L55.4621 25.2144C53.2431 27.2294 50.321 28.3377 47.2937 28.312C45.7783 28.3303 44.2754 28.0393 42.8811 27.4575C41.4874 26.8757 40.2324 26.0158 39.1971 24.9328C38.1102 23.8718 37.2515 22.6079 36.6727 21.216C36.0946 19.8242 35.8075 18.3328 35.829 16.8304C35.8075 15.3289 36.0939 13.8384 36.6727 12.4475C37.2515 11.0567 38.1095 9.79397 39.1971 8.73438C40.2311 7.6492 41.4855 6.7875 42.8798 6.20446C44.2741 5.62149 45.7777 5.32997 47.2937 5.34878C50.2523 5.34046 53.111 6.39742 55.3248 8.31838L53.9448 10.0656C52.0934 8.50027 49.7403 7.61937 47.2937 7.57598C46.0923 7.55659 44.9007 7.78347 43.7948 8.24197C42.6882 8.70053 41.6928 9.38059 40.8714 10.2384C40.0074 11.1105 39.3312 12.1432 38.8819 13.2754C38.4326 14.4075 38.2194 15.6163 38.2554 16.8304C38.2194 18.0444 38.4326 19.2532 38.8819 20.3854C39.3312 21.5175 40.0074 22.5502 40.8714 23.4224C41.6915 24.2815 42.6875 24.9623 43.7935 25.421C44.9 25.8796 46.0923 26.1057 47.2937 26.0848C49.8044 26.0487 52.2157 25.1181 54.0756 23.4672Z" fill="url(#paint1_linear_2376_5253)"/>
<path d="M83.4795 1.33008V3.55727H60.184V1.33008H83.4795ZM70.648 32.3317H68.2413V8.01167H60.184V5.78446H70.648V32.3317ZM75.468 32.3317H73.0613V5.78446H83.5253V8.01167H75.4484L75.468 32.3317Z" fill="url(#paint2_linear_2376_5253)"/>
<path d="M91.9553 32.3317H89.5486V1.33008H91.9553V32.3317ZM96.7753 32.3317H94.3686V1.33008H96.808L96.7753 32.3317Z" fill="url(#paint3_linear_2376_5253)"/>
<path d="M128.409 1.33008H130.816L116.317 32.7605H115.918L101.386 1.33008H103.93L116.16 27.8325L128.409 1.33008ZM123.589 1.33008H125.996L116.225 22.4501L106.5 1.33008H109.044L116.317 17.0933L123.589 1.33008Z" fill="url(#paint4_linear_2376_5253)"/>
<path d="M155.223 32.3313H152.679L140.456 5.82891L128.233 32.3313H125.819L140.319 0.894531H140.724L155.223 32.3313ZM150.135 32.3313H147.591L145.943 28.7921H134.701L133.046 32.3313H130.639L133.255 26.6993H147.578L150.135 32.3313ZM134.21 24.6001L140.41 11.1985L146.564 24.6001H134.21ZM137.598 22.5201H143.039L140.319 16.5809L137.598 22.5201Z" fill="url(#paint5_linear_2376_5253)"/>
<path d="M176.949 1.33008V3.55727H153.66V1.33008H176.949ZM164.105 32.3317H161.691V8.01167H153.66V5.78446H164.124L164.105 32.3317ZM168.918 32.3317H166.511V5.78446H176.975V8.01167H168.918V32.3317Z" fill="url(#paint6_linear_2376_5253)"/>
<path d="M207.825 32.3317H205.15L197.119 20.8117C198.865 20.1553 200.372 19.0058 201.448 17.5093C202.398 16.1527 202.904 14.5457 202.9 12.9013C202.9 9.96584 201.873 7.65115 199.82 5.95726C197.766 4.26344 195.135 3.41006 191.926 3.39726H185.451V32.3317H183.044V1.33008H191.9C195.824 1.33008 199.059 2.35624 201.605 4.40846C204.151 6.46075 205.422 9.29807 205.418 12.9205C205.427 14.628 204.959 16.3056 204.064 17.7717C203.13 19.2947 201.819 20.5626 200.251 21.4581L207.825 32.3317ZM199.793 32.3317L190.245 18.6805V32.3317H187.838V5.52206H191.9C194.1 5.43342 196.257 6.13192 197.969 7.48686C198.759 8.1572 199.382 8.99503 199.791 9.93666C200.2 10.8782 200.385 11.8987 200.33 12.9205C200.349 14.5706 199.738 16.1681 198.616 17.4005C197.328 18.7505 195.597 19.6157 193.724 19.8453L202.475 32.3317H199.793ZM191.9 7.62126H190.245V18.2261H191.586C193.578 18.2261 195.104 17.7461 196.164 16.7861C196.702 16.2936 197.126 15.6935 197.406 15.0264C197.686 14.3593 197.815 13.641 197.786 12.9205C197.826 12.1952 197.701 11.4703 197.419 10.7983C197.137 10.1264 196.707 9.52418 196.157 9.03566C194.968 8.06005 193.45 7.55547 191.9 7.62126Z" fill="url(#paint7_linear_2376_5253)"/>
<path d="M230.983 30.1045V32.3317H213.043V1.33008H230.983V3.55727H215.457V30.1045H230.983ZM230.087 12.8245V15.0517H217.863V5.78446H230.983V8.01167H220.277V12.8117L230.087 12.8245ZM230.983 25.6629V27.8901H217.863V17.2661H230.087V19.4933H220.277V25.6501L230.983 25.6629Z" fill="url(#paint8_linear_2376_5253)"/>
<path d="M256.188 30.1045V32.3317H238.255V1.33008H256.188V3.55727H240.688V30.1045H256.188ZM255.298 12.8245V15.0517H243.075V5.78446H256.188V8.01167H245.482V12.8117L255.298 12.8245ZM256.188 25.6629V27.8901H243.075V17.2661H255.298V19.4933H245.488V25.6501L256.188 25.6629Z" fill="url(#paint9_linear_2376_5253)"/>
<defs>
<linearGradient id="paint0_linear_2376_5253" x1="0.846574" y1="16.8305" x2="222.271" y2="16.8305" gradientUnits="userSpaceOnUse">
<stop offset="0.62" stop-color="#9F00AA"/>
<stop offset="0.66" stop-color="#67009B"/>
<stop offset="0.71" stop-color="#1B0087"/>
<stop offset="0.88" stop-color="#000080"/>
</linearGradient>
<linearGradient id="paint1_linear_2376_5253" x1="0.846578" y1="16.8304" x2="222.271" y2="16.8304" gradientUnits="userSpaceOnUse">
<stop offset="0.62" stop-color="#9F00AA"/>
<stop offset="0.66" stop-color="#67009B"/>
<stop offset="0.71" stop-color="#1B0087"/>
<stop offset="0.88" stop-color="#000080"/>
</linearGradient>
<linearGradient id="paint2_linear_2376_5253" x1="0.84658" y1="16.8309" x2="222.271" y2="16.8309" gradientUnits="userSpaceOnUse">
<stop offset="0.62" stop-color="#9F00AA"/>
<stop offset="0.66" stop-color="#67009B"/>
<stop offset="0.71" stop-color="#1B0087"/>
<stop offset="0.88" stop-color="#000080"/>
</linearGradient>
<linearGradient id="paint3_linear_2376_5253" x1="0.84654" y1="16.8309" x2="222.271" y2="16.8309" gradientUnits="userSpaceOnUse">
<stop offset="0.62" stop-color="#9F00AA"/>
<stop offset="0.66" stop-color="#67009B"/>
<stop offset="0.71" stop-color="#1B0087"/>
<stop offset="0.88" stop-color="#000080"/>
</linearGradient>
<linearGradient id="paint4_linear_2376_5253" x1="0.846572" y1="16.8309" x2="222.271" y2="16.8309" gradientUnits="userSpaceOnUse">
<stop offset="0.62" stop-color="#9F00AA"/>
<stop offset="0.66" stop-color="#67009B"/>
<stop offset="0.71" stop-color="#1B0087"/>
<stop offset="0.88" stop-color="#000080"/>
</linearGradient>
<linearGradient id="paint5_linear_2376_5253" x1="0.846508" y1="16.8305" x2="222.271" y2="16.8305" gradientUnits="userSpaceOnUse">
<stop offset="0.62" stop-color="#9F00AA"/>
<stop offset="0.66" stop-color="#67009B"/>
<stop offset="0.71" stop-color="#1B0087"/>
<stop offset="0.88" stop-color="#000080"/>
</linearGradient>
<linearGradient id="paint6_linear_2376_5253" x1="0.846602" y1="16.8309" x2="222.271" y2="16.8309" gradientUnits="userSpaceOnUse">
<stop offset="0.62" stop-color="#9F00AA"/>
<stop offset="0.66" stop-color="#67009B"/>
<stop offset="0.71" stop-color="#1B0087"/>
<stop offset="0.88" stop-color="#000080"/>
</linearGradient>
<linearGradient id="paint7_linear_2376_5253" x1="0.846502" y1="16.8309" x2="222.271" y2="16.8309" gradientUnits="userSpaceOnUse">
<stop offset="0.62" stop-color="#9F00AA"/>
<stop offset="0.66" stop-color="#67009B"/>
<stop offset="0.71" stop-color="#1B0087"/>
<stop offset="0.88" stop-color="#000080"/>
</linearGradient>
<linearGradient id="paint8_linear_2376_5253" x1="0.846644" y1="16.8309" x2="222.271" y2="16.8309" gradientUnits="userSpaceOnUse">
<stop offset="0.62" stop-color="#9F00AA"/>
<stop offset="0.66" stop-color="#67009B"/>
<stop offset="0.71" stop-color="#1B0087"/>
<stop offset="0.88" stop-color="#000080"/>
</linearGradient>
<linearGradient id="paint9_linear_2376_5253" x1="0.846479" y1="16.8309" x2="222.271" y2="16.8309" gradientUnits="userSpaceOnUse">
<stop offset="0.62" stop-color="#9F00AA"/>
<stop offset="0.66" stop-color="#67009B"/>
<stop offset="0.71" stop-color="#1B0087"/>
<stop offset="0.88" stop-color="#000080"/>
</linearGradient>
</defs>
</svg>
