<svg width="47" height="35" viewBox="0 0 47 35" fill="none" xmlns="http://www.w3.org/2000/svg">
<path d="M30.3325 34.4147H27.7165L15.1009 7.07391L2.4852 34.4147H0L14.388 1.97949H15.9184L30.3325 34.4147ZM25.1005 34.4147H22.4845L20.7776 30.7667H9.156L7.44906 34.4147H4.9704L7.63872 28.6035H22.4191L25.1005 34.4147ZM8.65242 26.4403L15.042 12.6099L21.4054 26.4403H8.65242ZM12.1513 24.2771H17.7692L14.957 18.1523L12.1513 24.2771Z" fill="url(#paint0_linear_2376_5252)"/>
<path d="M22.236 9.32006H30.3325V34.4145H32.8177V7.02246H21.1177L22.236 9.32006Z" fill="url(#paint1_linear_2376_5252)"/>
<path d="M17.9588 2.43311L19.2603 4.73069H43.7264V7.02189H35.3029V34.4139H37.7881V9.31949H46.0743V9.28749V7.02189V4.73069V3.22671V2.43311H17.9588Z" fill="url(#paint2_linear_2376_5252)"/>
<path d="M5.74212 6.2739C5.15823 6.32433 4.57395 6.18142 4.08297 5.86808C3.592 5.55473 3.22279 5.08913 3.03456 4.5459C2.90969 4.21573 2.85347 3.86449 2.86919 3.51281C2.88491 3.16115 2.97227 2.81608 3.12612 2.49788C3.3419 1.99532 3.70768 1.56821 4.17561 1.27245C4.64354 0.976698 5.19181 0.826068 5.74866 0.840276C7.4229 0.910676 8.45622 1.86428 8.58048 3.20188C8.60998 3.4035 8.60998 3.60824 8.58048 3.8099C8.49069 4.44478 8.18272 5.03089 7.70726 5.47172C7.2318 5.91256 6.61717 6.18193 5.96448 6.2355L5.74212 6.2739ZM5.74212 4.6291C6.06722 4.63083 6.38008 4.50789 6.61358 4.28657C6.84712 4.0652 6.98269 3.76312 6.99126 3.4451C6.96301 3.15196 6.81985 2.88093 6.59186 2.68884C6.36383 2.49674 6.06868 2.39848 5.76828 2.41468C5.45585 2.423 5.15679 2.54052 4.92525 2.74597C4.69372 2.95142 4.54501 3.23121 4.50606 3.5347C4.5276 3.83237 4.66384 4.11096 4.88722 4.31409C5.1106 4.51723 5.40447 4.62981 5.70942 4.6291H5.74212Z" fill="url(#paint3_linear_2376_5252)"/>
<path d="M46.0481 16.0533L46.0743 13.7812L40.0183 13.7877L40.0444 16.0533H46.0481Z" fill="url(#paint4_linear_2376_5252)"/>
<path d="M40.0444 19.7266H46.0481L46.0743 17.4546L40.0183 17.461L40.0444 19.7266Z" fill="url(#paint5_linear_2376_5252)"/>
<path d="M40.0444 23.3935H46.0481L46.0743 21.1279L40.0183 21.1343L40.0444 23.3935Z" fill="url(#paint6_linear_2376_5252)"/>
<path d="M40.0444 27.0674H46.0481L46.0743 24.7954L40.0183 24.8018L40.0444 27.0674Z" fill="url(#paint7_linear_2376_5252)"/>
<path d="M40.0444 30.7412H46.0481L46.0743 28.4692L40.0183 28.4756L40.0444 30.7412Z" fill="url(#paint8_linear_2376_5252)"/>
<path d="M40.0444 34.4146H46.0481L46.0743 32.1426L40.0183 32.149L40.0444 34.4146Z" fill="url(#paint9_linear_2376_5252)"/>
<defs>
<linearGradient id="paint0_linear_2376_5252" x1="0" y1="18.1971" x2="30.3325" y2="18.1971" gradientUnits="userSpaceOnUse">
<stop offset="0.45" stop-color="#9F00AA"/>
<stop offset="0.47" stop-color="#9A00A9"/>
<stop offset="0.66" stop-color="#580097"/>
<stop offset="0.81" stop-color="#29008B"/>
<stop offset="0.93" stop-color="#0B0083"/>
<stop offset="1" stop-color="#000080"/>
</linearGradient>
<linearGradient id="paint1_linear_2376_5252" x1="21.1177" y1="20.7185" x2="32.8177" y2="20.7185" gradientUnits="userSpaceOnUse">
<stop offset="0.45" stop-color="#9F00AA"/>
<stop offset="0.47" stop-color="#9A00A9"/>
<stop offset="0.66" stop-color="#580097"/>
<stop offset="0.81" stop-color="#29008B"/>
<stop offset="0.93" stop-color="#0B0083"/>
<stop offset="1" stop-color="#000080"/>
</linearGradient>
<linearGradient id="paint2_linear_2376_5252" x1="17.9588" y1="18.4203" x2="46.0743" y2="18.4203" gradientUnits="userSpaceOnUse">
<stop offset="0.45" stop-color="#9F00AA"/>
<stop offset="0.47" stop-color="#9A00A9"/>
<stop offset="0.66" stop-color="#580097"/>
<stop offset="0.81" stop-color="#29008B"/>
<stop offset="0.93" stop-color="#0B0083"/>
<stop offset="1" stop-color="#000080"/>
</linearGradient>
<linearGradient id="paint3_linear_2376_5252" x1="2.86452" y1="3.5731" x2="8.58702" y2="3.5731" gradientUnits="userSpaceOnUse">
<stop offset="0.45" stop-color="#9F00AA"/>
<stop offset="0.47" stop-color="#9A00A9"/>
<stop offset="0.66" stop-color="#580097"/>
<stop offset="0.81" stop-color="#29008B"/>
<stop offset="0.93" stop-color="#0B0083"/>
<stop offset="1" stop-color="#000080"/>
</linearGradient>
<linearGradient id="paint4_linear_2376_5252" x1="40.0183" y1="14.9141" x2="49.3792" y2="14.9141" gradientUnits="userSpaceOnUse">
<stop offset="0.45" stop-color="#9F00AA"/>
<stop offset="0.47" stop-color="#9A00A9"/>
<stop offset="0.66" stop-color="#580097"/>
<stop offset="0.81" stop-color="#29008B"/>
<stop offset="0.93" stop-color="#0B0083"/>
<stop offset="1" stop-color="#000080"/>
</linearGradient>
<linearGradient id="paint5_linear_2376_5252" x1="40.0183" y1="18.5874" x2="49.3792" y2="18.5874" gradientUnits="userSpaceOnUse">
<stop offset="0.45" stop-color="#9F00AA"/>
<stop offset="0.47" stop-color="#9A00A9"/>
<stop offset="0.66" stop-color="#580097"/>
<stop offset="0.81" stop-color="#29008B"/>
<stop offset="0.93" stop-color="#0B0083"/>
<stop offset="1" stop-color="#000080"/>
</linearGradient>
<linearGradient id="paint6_linear_2376_5252" x1="40.0183" y1="22.2575" x2="49.3792" y2="22.2575" gradientUnits="userSpaceOnUse">
<stop offset="0.45" stop-color="#9F00AA"/>
<stop offset="0.47" stop-color="#9A00A9"/>
<stop offset="0.66" stop-color="#580097"/>
<stop offset="0.81" stop-color="#29008B"/>
<stop offset="0.93" stop-color="#0B0083"/>
<stop offset="1" stop-color="#000080"/>
</linearGradient>
<linearGradient id="paint7_linear_2376_5252" x1="40.0183" y1="25.9282" x2="49.3792" y2="25.9282" gradientUnits="userSpaceOnUse">
<stop offset="0.45" stop-color="#9F00AA"/>
<stop offset="0.47" stop-color="#9A00A9"/>
<stop offset="0.66" stop-color="#580097"/>
<stop offset="0.81" stop-color="#29008B"/>
<stop offset="0.93" stop-color="#0B0083"/>
<stop offset="1" stop-color="#000080"/>
</linearGradient>
<linearGradient id="paint8_linear_2376_5252" x1="40.0183" y1="29.602" x2="49.3792" y2="29.602" gradientUnits="userSpaceOnUse">
<stop offset="0.45" stop-color="#9F00AA"/>
<stop offset="0.47" stop-color="#9A00A9"/>
<stop offset="0.66" stop-color="#580097"/>
<stop offset="0.81" stop-color="#29008B"/>
<stop offset="0.93" stop-color="#0B0083"/>
<stop offset="1" stop-color="#000080"/>
</linearGradient>
<linearGradient id="paint9_linear_2376_5252" x1="40.0183" y1="33.2754" x2="49.3792" y2="33.2754" gradientUnits="userSpaceOnUse">
<stop offset="0.45" stop-color="#9F00AA"/>
<stop offset="0.47" stop-color="#9A00A9"/>
<stop offset="0.66" stop-color="#580097"/>
<stop offset="0.81" stop-color="#29008B"/>
<stop offset="0.93" stop-color="#0B0083"/>
<stop offset="1" stop-color="#000080"/>
</linearGradient>
</defs>
</svg>
