<svg width="22" height="22" viewBox="0 0 22 22" fill="none" xmlns="http://www.w3.org/2000/svg">
<g clip-path="url(#clip0_4283_6890)">
<path d="M14.0875 11.4572C15.3603 10.5108 16.1901 9.00029 16.1901 7.29565C16.1901 4.43417 13.8623 2.10645 11.0008 2.10645C8.13936 2.10645 5.81164 4.43417 5.81164 7.29565C5.81164 9.00029 6.64144 10.5108 7.9142 11.4572C5.64553 12.2198 4.00513 14.3622 4.00513 16.8841V17.6076C4.00513 18.4655 4.61419 19.2052 5.45359 19.3661C7.27782 19.7153 9.14413 19.8918 11.0016 19.8918C12.859 19.8918 14.7254 19.7146 16.5503 19.3661C17.389 19.2052 17.998 18.4655 17.998 17.6076V16.8841C17.9966 14.3622 16.3554 12.2198 14.0875 11.4572ZM7.13976 7.29565C7.13976 5.16726 8.87172 3.43531 11.0001 3.43531C13.1285 3.43531 14.8605 5.16726 14.8605 7.29565C14.8605 9.42405 13.1285 11.156 11.0001 11.156C8.87172 11.156 7.13976 9.42478 7.13976 7.29565ZM16.667 17.6076C16.667 17.8291 16.5119 18.0203 16.2986 18.0609C12.8147 18.7268 9.18474 18.7268 5.70238 18.0609C5.48828 18.0196 5.33325 17.8291 5.33325 17.6076V16.8841C5.33325 14.4582 7.30661 12.4849 9.73178 12.4849H12.2684C14.6936 12.4849 16.667 14.4582 16.667 16.8841V17.6076Z" fill="#2D2E2E"/>
<path d="M19.1644 11.2187C20.037 10.4258 20.5678 9.28374 20.5678 8.06783C20.5678 6.31374 19.5128 4.76414 17.8805 4.12038C17.5409 3.98675 17.1541 4.15286 17.019 4.49467C16.8839 4.83575 17.0515 5.22185 17.3933 5.35622C18.5147 5.79843 19.2382 6.863 19.2382 8.0671C19.2382 9.26676 18.4866 10.3609 17.3689 10.7913C17.0854 10.9005 16.9119 11.1877 16.9481 11.4897C16.9835 11.7916 17.2198 12.0301 17.5203 12.0699C19.1688 12.2877 20.6711 13.9975 20.6711 15.6564V16.2248C20.6711 16.3334 20.5944 16.4315 20.4895 16.4522C20.3589 16.4781 20.223 16.5017 20.0827 16.526L19.7993 16.5755C19.4382 16.6412 19.1991 16.9867 19.264 17.3477C19.3223 17.6689 19.6021 17.8933 19.9174 17.8933C19.9572 17.8933 19.9964 17.8896 20.037 17.8822L20.3072 17.835C20.4593 17.8084 20.6076 17.7833 20.7479 17.7552C21.4729 17.6128 22 16.969 22 16.2248V15.6564C22 13.8248 20.7996 12.0552 19.1644 11.2187Z" fill="#2D2E2E"/>
<path d="M2.20074 16.5775L1.91725 16.5281C1.77772 16.5037 1.64114 16.4808 1.50826 16.4535C1.40638 16.4336 1.32886 16.3361 1.32886 16.2269V15.6584C1.32886 13.9995 2.83048 12.2897 4.47974 12.0719C4.78021 12.0321 5.01719 11.7936 5.05189 11.4917C5.08807 11.1897 4.91384 10.9025 4.63108 10.7933C3.51263 10.3629 2.76182 9.26804 2.76182 8.06912C2.76182 6.86428 3.48531 5.79971 4.60672 5.35824C4.94853 5.22314 5.11538 4.83703 4.98102 4.49595C4.84592 4.15414 4.45833 3.98729 4.11947 4.12166C2.48719 4.76542 1.43222 6.31502 1.43222 8.06912C1.43222 9.28429 1.96376 10.4271 2.83564 11.22C1.20041 12.0557 0 13.8253 0 15.6584V16.2269C0 16.971 0.527115 17.6148 1.24987 17.7565C1.39161 17.7853 1.54074 17.8104 1.69282 17.837L1.96302 17.8842C2.00363 17.8916 2.04276 17.8953 2.08262 17.8953C2.39786 17.8953 2.67766 17.6701 2.73598 17.3497C2.80168 16.9887 2.56175 16.6432 2.20074 16.5775Z" fill="#2D2E2E"/>
</g>
<defs>
<clipPath id="clip0_4283_6890">
<rect width="22" height="22" fill="white"/>
</clipPath>
</defs>
</svg>
