<svg width="22" height="22" viewBox="0 0 22 22" fill="none" xmlns="http://www.w3.org/2000/svg">
<g clip-path="url(#clip0_4283_6843)">
<path fill-rule="evenodd" clip-rule="evenodd" d="M2.55815 3.78696C1.91595 3.78696 1.39535 4.30755 1.39535 4.94975V15.1824C1.39535 15.8246 1.91595 16.3451 2.55815 16.3451H17.4419C18.0842 16.3451 18.6047 15.8246 18.6047 15.1824V4.94975C18.6047 4.30755 18.0842 3.78696 17.4419 3.78696H16.9768C16.5915 3.78696 16.2791 3.47459 16.2791 3.08928C16.2791 2.70397 16.5915 2.3916 16.9768 2.3916H17.4419C18.8548 2.3916 20.0001 3.53693 20.0001 4.94975V15.1824C20.0001 16.5952 18.8548 17.7405 17.4419 17.7405H2.55815C1.14533 17.7405 0 16.5952 0 15.1824V4.94975C0 3.53693 1.14533 2.3916 2.55815 2.3916H13.2559C13.6412 2.3916 13.9535 2.70397 13.9535 3.08928C13.9535 3.47459 13.6412 3.78696 13.2559 3.78696H2.55815Z" fill="#2D2E2E"/>
<path fill-rule="evenodd" clip-rule="evenodd" d="M7.81737 6.19116C8.04812 6.07102 8.32655 6.08924 8.53967 6.23842L13.1908 9.49427C13.3774 9.62478 13.4884 9.83818 13.4884 10.0658C13.4884 10.2934 13.3774 10.5068 13.1908 10.6373L8.53967 13.8932C8.32655 14.0424 8.04812 14.0606 7.81737 13.9404C7.58663 13.8203 7.44189 13.5818 7.44189 13.3216V6.80998C7.44189 6.54984 7.58663 6.3113 7.81737 6.19116ZM8.83725 8.14998V11.9816L11.5742 10.0658L8.83725 8.14998Z" fill="#2D2E2E"/>
<path fill-rule="evenodd" clip-rule="evenodd" d="M3.72095 19.3686C3.72095 18.9833 4.03331 18.6709 4.41862 18.6709H15.5815C15.9668 18.6709 16.2791 18.9833 16.2791 19.3686C16.2791 19.7539 15.9668 20.0663 15.5815 20.0663H4.41862C4.03331 20.0663 3.72095 19.7539 3.72095 19.3686Z" fill="#2D2E2E"/>
</g>
<defs>
<clipPath id="clip0_4283_6843">
<rect width="22" height="22" fill="white"/>
</clipPath>
</defs>
</svg>
