<svg width="22" height="22" viewBox="0 0 22 22" fill="none" xmlns="http://www.w3.org/2000/svg">
<path d="M15.1022 16.3125V17.875C15.1022 19.5982 13.7003 21 11.977 21H4.12514C2.40189 21 1 19.5982 1 17.875V4.125C1 2.40182 2.40189 1 4.12514 1H11.977C13.7003 1 15.1022 2.40182 15.1022 4.125V5.6875C15.1022 6.11902 14.7524 6.46875 14.3209 6.46875C13.8894 6.46875 13.5396 6.11902 13.5396 5.6875V4.125C13.5396 3.26349 12.8386 2.5625 11.977 2.5625H4.12514C3.26359 2.5625 2.56257 3.26349 2.56257 4.125V17.875C2.56257 18.7365 3.26359 19.4375 4.12514 19.4375H11.977C12.8386 19.4375 13.5396 18.7365 13.5396 17.875V16.3125C13.5396 15.881 13.8894 15.5312 14.3209 15.5312C14.7524 15.5312 15.1022 15.881 15.1022 16.3125ZM20.4288 9.65799L18.6793 7.90857C18.3741 7.60339 17.8794 7.60339 17.5744 7.90857C17.2692 8.21359 17.2692 8.70828 17.5744 9.01331L18.8188 10.2578H9.43787C9.00633 10.2578 8.65659 10.6075 8.65659 11.0391C8.65659 11.4706 9.00633 11.8203 9.43787 11.8203H18.8188L17.5744 13.0648C17.2692 13.3698 17.2692 13.8645 17.5744 14.1696C17.727 14.3221 17.9269 14.3984 18.1268 14.3984C18.3268 14.3984 18.5267 14.3221 18.6793 14.1696L20.4288 12.4201C21.1904 11.6586 21.1904 10.4196 20.4288 9.65799Z" fill="#2D2E2E"/>
</svg>
