<svg width="22" height="22" viewBox="0 0 22 22" fill="none" xmlns="http://www.w3.org/2000/svg">
<path fill-rule="evenodd" clip-rule="evenodd" d="M9.85417 2.52051C5.17126 2.52051 1.375 6.31676 1.375 10.9997C1.375 15.6826 5.17126 19.4788 9.85417 19.4788C11.7641 19.4788 13.5249 18.8482 14.9421 17.7834C15.2456 17.5553 15.6767 17.6164 15.9047 17.92C16.1328 18.2236 16.0716 18.6546 15.768 18.8826C14.1209 20.1202 12.0722 20.8538 9.85417 20.8538C4.41186 20.8538 0 16.442 0 10.9997C0 5.55737 4.41186 1.14551 9.85417 1.14551C15.2965 1.14551 19.7083 5.55737 19.7083 10.9997C19.7083 12.3999 19.4159 13.7335 18.8881 14.9416C18.736 15.2895 18.3308 15.4483 17.9828 15.2964C17.6349 15.1443 17.4761 14.739 17.628 14.3911C18.0814 13.3534 18.3333 12.2068 18.3333 10.9997C18.3333 6.31676 14.5371 2.52051 9.85417 2.52051Z" fill="#2D2E2E"/>
<path fill-rule="evenodd" clip-rule="evenodd" d="M6.78369 8.70833C6.78369 7.31612 7.91231 6.1875 9.30453 6.1875H12.1462C12.5259 6.1875 12.8337 6.49531 12.8337 6.875C12.8337 7.25469 12.5259 7.5625 12.1462 7.5625H9.30453C8.67167 7.5625 8.1587 8.0755 8.1587 8.70833V9.16667C8.1587 9.79953 8.67167 10.3125 9.30453 10.3125H10.4045C11.7968 10.3125 12.9254 11.4411 12.9254 12.8333V13.2917C12.9254 14.6839 11.7968 15.8125 10.4045 15.8125H7.56286C7.18317 15.8125 6.87536 15.5047 6.87536 15.125C6.87536 14.7453 7.18317 14.4375 7.56286 14.4375H10.4045C11.0373 14.4375 11.5504 13.9245 11.5504 13.2917V12.8333C11.5504 12.2005 11.0373 11.6875 10.4045 11.6875H9.30453C7.91231 11.6875 6.78369 10.5589 6.78369 9.16667V8.70833Z" fill="#2D2E2E"/>
<path fill-rule="evenodd" clip-rule="evenodd" d="M9.85425 4.1709C10.2339 4.1709 10.5417 4.4787 10.5417 4.8584V6.87506C10.5417 7.25476 10.2339 7.56257 9.85425 7.56257C9.47456 7.56257 9.16675 7.25476 9.16675 6.87506V4.8584C9.16675 4.4787 9.47456 4.1709 9.85425 4.1709Z" fill="#2D2E2E"/>
<path fill-rule="evenodd" clip-rule="evenodd" d="M9.85425 14.4375C10.2339 14.4375 10.5417 14.7453 10.5417 15.125V17.1417C10.5417 17.5214 10.2339 17.8292 9.85425 17.8292C9.47456 17.8292 9.16675 17.5214 9.16675 17.1417V15.125C9.16675 14.7453 9.47456 14.4375 9.85425 14.4375Z" fill="#2D2E2E"/>
</svg>
