<svg width="16" height="17" viewBox="0 0 16 17" fill="none" xmlns="http://www.w3.org/2000/svg">
<path d="M8.66748 1.80314C8.66748 1.43495 8.36901 1.13647 8.00081 1.13647C7.63261 1.13647 7.33415 1.43495 7.33415 1.80314V2.39983C6.65353 2.50625 6.01667 2.77923 5.46312 3.22207C5.17561 3.45208 5.12899 3.87161 5.359 4.15912C5.58901 4.44663 6.00854 4.49324 6.29605 4.26323C6.77721 3.87833 7.35548 3.68205 8.00081 3.68205H8.06141C9.63995 3.68205 10.9705 4.96666 10.9705 6.59114V7.50025C10.9705 8.14258 11.1129 8.79098 11.4045 9.37411C11.5691 9.70345 11.9696 9.83691 12.2989 9.67225C12.6283 9.50765 12.7617 9.10718 12.5971 8.77785C12.4038 8.39131 12.3038 7.94878 12.3038 7.50025V6.59114C12.3038 4.42759 10.6927 2.68594 8.66748 2.39235V1.80314Z" fill="#131010"/>
<path fill-rule="evenodd" clip-rule="evenodd" d="M3.84502 5.59337L0.885672 2.90305C0.613003 2.65563 0.592536 2.23402 0.839958 1.96135C1.08738 1.68869 1.50899 1.66822 1.78166 1.91564L5.05499 4.88589L15.1156 14.0374C15.3879 14.2851 15.4079 14.7068 15.1601 14.9792C14.9124 15.2515 14.4908 15.2715 14.2184 15.0237L13.0765 13.9857H10.4619C10.1769 15.0478 9.22706 15.8635 8.06099 15.8635C6.89672 15.8635 5.91322 15.0845 5.64473 13.9857H3.39431C1.47572 13.9857 0.471031 11.6082 1.98352 10.2736L1.99397 10.2646L2.77127 9.60686C3.36481 9.05839 3.69733 8.32733 3.69733 7.56139V6.6523C3.69733 6.25683 3.76334 5.90026 3.84502 5.59337ZM11.6099 12.6523H3.39431C2.64825 12.6523 2.31935 11.7619 2.86124 11.2773L3.64311 10.6158C3.64985 10.6101 3.65647 10.6043 3.66297 10.5983C4.51816 9.81433 5.03067 8.73086 5.03067 7.56139V6.67123L11.6099 12.6523ZM7.07126 13.9857H9.02353C8.81319 14.3162 8.45359 14.5302 8.06099 14.5302C7.63532 14.5302 7.27152 14.3162 7.07126 13.9857Z" fill="#131010"/>
</svg>
