<svg width="22" height="22" viewBox="0 0 22 22" fill="none" xmlns="http://www.w3.org/2000/svg">
<g clip-path="url(#clip0_4283_6881)">
<path fill-rule="evenodd" clip-rule="evenodd" d="M4.82858 1.48525C4.1185 1.48525 3.54286 2.06088 3.54286 2.77097V4.82812C3.54286 5.25417 3.19748 5.59955 2.77143 5.59955C2.34539 5.59955 2 5.25417 2 4.82812V2.77097C2 1.20879 3.2664 -0.0576172 4.82858 -0.0576172H11.2677C11.9428 -0.0576172 12.5958 0.183923 13.1084 0.623341L19.0123 5.6838C19.6393 6.22119 20.0001 7.0057 20.0001 7.83143V19.2282C20.0001 20.7904 18.7337 22.0568 17.1715 22.0568H4.82858C3.2664 22.0568 2 20.7904 2 19.2282V8.94242C2 8.51638 2.34539 8.17099 2.77143 8.17099C3.19748 8.17099 3.54286 8.51638 3.54286 8.94242V19.2282C3.54286 19.9383 4.1185 20.5139 4.82858 20.5139H17.1715C17.8816 20.5139 18.4572 19.9383 18.4572 19.2282V7.83143C18.4572 7.45609 18.2932 7.0995 18.0082 6.85524L12.1043 1.79478C11.8713 1.59504 11.5745 1.48525 11.2677 1.48525H4.82858Z" fill="#2D2E2E"/>
<path fill-rule="evenodd" clip-rule="evenodd" d="M11.2571 4.82756V1.22754H12.7999V4.82756C12.7999 5.53764 13.3755 6.11328 14.0857 6.11328H18.7143C19.1403 6.11328 19.4857 6.45866 19.4857 6.88471C19.4857 7.31075 19.1403 7.65614 18.7143 7.65614H14.0857C12.5235 7.65614 11.2571 6.38974 11.2571 4.82756Z" fill="#2D2E2E"/>
<path fill-rule="evenodd" clip-rule="evenodd" d="M5.08569 10.9999C5.08569 10.5739 5.43108 10.2285 5.85713 10.2285H14.0857C14.5118 10.2285 14.8572 10.5739 14.8572 10.9999C14.8572 11.426 14.5118 11.7714 14.0857 11.7714H5.85713C5.43108 11.7714 5.08569 11.426 5.08569 10.9999Z" fill="#2D2E2E"/>
<path fill-rule="evenodd" clip-rule="evenodd" d="M5.08569 14.0849C5.08569 13.6589 5.43108 13.3135 5.85713 13.3135H10.4857C10.9118 13.3135 11.2572 13.6589 11.2572 14.0849C11.2572 14.5109 10.9118 14.8563 10.4857 14.8563H5.85713C5.43108 14.8563 5.08569 14.5109 5.08569 14.0849Z" fill="#2D2E2E"/>
<path fill-rule="evenodd" clip-rule="evenodd" d="M5.08569 17.1708C5.08569 16.7448 5.43108 16.3994 5.85713 16.3994H13.0572C13.4832 16.3994 13.8286 16.7448 13.8286 17.1708C13.8286 17.5969 13.4832 17.9423 13.0572 17.9423H5.85713C5.43108 17.9423 5.08569 17.5969 5.08569 17.1708Z" fill="#2D2E2E"/>
</g>
<defs>
<clipPath id="clip0_4283_6881">
<rect width="22" height="22" fill="white"/>
</clipPath>
</defs>
</svg>
