<svg width="16" height="17" viewBox="0 0 16 17" fill="none" xmlns="http://www.w3.org/2000/svg">
<g clip-path="url(#clip0_4361_7551)">
<path d="M9.58465 8.80628C9.54836 8.7311 9.55984 8.64198 9.61455 8.57877L10.527 7.52452C10.5903 7.45143 10.6838 7.42061 10.727 7.43848C11.8213 7.8949 13.0707 7.48934 13.697 6.47424C14.3023 5.49153 14.0661 4.15149 13.1475 3.35642L10.6545 1.19862C9.73588 0.403554 8.37582 0.362059 7.49008 1.10197C6.57408 1.86752 6.35191 3.16219 6.96178 4.17956C6.98567 4.21982 6.96915 4.31609 6.90532 4.38984L5.99284 5.44409C5.93813 5.5073 5.85158 5.53145 5.77074 5.50641C4.16965 5.0075 2.44386 5.51099 1.37226 6.79033C0.857881 7.40592 0.945366 8.34549 1.56896 8.88522L3.71235 10.7404L0.72016 14.1975C0.484204 14.4701 0.513958 14.8828 0.786574 15.1188C1.05919 15.3548 1.47194 15.325 1.7079 15.0524L4.70009 11.5953L6.41349 13.0783C7.86152 14.3316 8.7169 13.5988 8.94493 13.3447C10.0574 12.1007 10.3081 10.3205 9.58465 8.80628ZM7.26841 12.0905L2.42453 7.89805C2.34156 7.82624 2.31809 7.69766 2.37491 7.62935C3.10656 6.75607 4.28635 6.41233 5.38094 6.75389C5.9577 6.93519 6.5857 6.75657 6.98124 6.29957L7.89371 5.24532C8.32858 4.74289 8.40486 4.04528 8.08278 3.50851C7.84428 3.11204 7.85279 2.50204 8.32795 2.10475C8.72744 1.77095 9.35978 1.80687 9.799 2.18702L12.2921 4.34482C12.7313 4.72497 12.8575 5.34563 12.5845 5.78885C12.2594 6.31609 11.657 6.412 11.231 6.2334C10.653 5.99229 9.97358 6.16784 9.53929 6.66961L8.62681 7.72386C8.23184 8.18019 8.14513 8.82731 8.40597 9.37097C8.90164 10.4058 8.73075 11.6239 7.96403 12.4818C7.96223 12.4826 7.7524 12.5094 7.26775 12.09L7.26841 12.0905Z" fill="#131010"/>
</g>
<defs>
<clipPath id="clip0_4361_7551">
<rect width="16" height="16" fill="white" transform="translate(0 0.5)"/>
</clipPath>
</defs>
</svg>
