<svg width="22" height="22" viewBox="0 0 22 22" fill="none" xmlns="http://www.w3.org/2000/svg">
<path d="M21 11.0007C21.0029 9.33996 20.5921 7.70467 19.8047 6.24245C19.0174 4.78024 17.8783 3.53712 16.4903 2.62535C15.1022 1.71357 13.509 1.16184 11.8543 1.01996C10.1997 0.878083 8.53573 1.15053 7.01274 1.8127C5.48974 2.47487 4.15564 3.50592 3.13087 4.81276C2.1061 6.1196 1.42293 7.66108 1.14305 9.29805C0.863156 10.935 0.995357 12.6159 1.52771 14.189C2.06007 15.7621 2.97582 17.1778 4.19229 18.3084C4.27483 18.4522 4.40164 18.5655 4.55383 18.6314C6.35343 20.1609 8.63824 21.0007 11 21.0007C13.3617 21.0007 15.6465 20.1609 17.4461 18.6314C17.5983 18.5655 17.7251 18.4522 17.8077 18.3084C18.8126 17.3744 19.6146 16.2437 20.1638 14.9865C20.713 13.7293 20.9976 12.3726 21 11.0007ZM2.53845 11.0007C2.53399 9.65767 2.84928 8.33289 3.45824 7.13588C4.0672 5.93886 4.95235 4.90399 6.04049 4.11683C7.12863 3.32967 8.38852 2.81283 9.71598 2.60904C11.0434 2.40525 12.4003 2.52036 13.6745 2.94487C14.9487 3.36937 16.1035 4.09107 17.0434 5.05029C17.9834 6.00952 18.6816 7.17871 19.0802 8.4612C19.4788 9.7437 19.5664 11.1027 19.3358 12.4257C19.1051 13.7488 18.5629 14.9979 17.7538 16.0699C17.0769 13.6161 14.3077 11.7699 11 11.7699C7.69229 11.7699 4.92306 13.6161 4.24614 16.0699C3.13872 14.6119 2.53895 12.8315 2.53845 11.0007ZM5.61537 17.5237V17.2545C5.61537 15.0776 8.03076 13.3084 11 13.3084C13.9692 13.3084 16.3846 15.0776 16.3846 17.2545V17.5237C14.8688 18.7742 12.965 19.4581 11 19.4581C9.03495 19.4581 7.13118 18.7742 5.61537 17.5237Z" fill="#2D2E2E"/>
<path d="M11 11.0009C11.7607 11.0009 12.5043 10.7753 13.1368 10.3527C13.7693 9.93009 14.2622 9.3294 14.5533 8.62661C14.8445 7.92382 14.9206 7.15048 14.7722 6.4044C14.6238 5.65832 14.2575 4.973 13.7196 4.43511C13.1817 3.89721 12.4964 3.5309 11.7503 3.3825C11.0042 3.23409 10.2309 3.31026 9.5281 3.60137C8.82531 3.89247 8.22462 4.38544 7.802 5.01794C7.37938 5.65044 7.15381 6.39405 7.15381 7.15475C7.15381 8.17481 7.55903 9.1531 8.28032 9.87439C9.00161 10.5957 9.9799 11.0009 11 11.0009ZM11 4.84706C11.4564 4.84706 11.9025 4.9824 12.282 5.23597C12.6615 5.48955 12.9573 5.84996 13.132 6.27163C13.3067 6.69331 13.3524 7.15731 13.2633 7.60496C13.1743 8.05261 12.9545 8.4638 12.6317 8.78653C12.309 9.10927 11.8978 9.32906 11.4502 9.4181C11.0025 9.50714 10.5385 9.46144 10.1168 9.28678C9.69517 9.11211 9.33476 8.81633 9.08119 8.43683C8.82761 8.05734 8.69227 7.61117 8.69227 7.15475C8.69227 6.54271 8.9354 5.95574 9.36818 5.52296C9.80095 5.09019 10.3879 4.84706 11 4.84706Z" fill="#2D2E2E"/>
</svg>
