<svg width="22" height="22" viewBox="0 0 22 22" fill="none" xmlns="http://www.w3.org/2000/svg">
<g clip-path="url(#clip0_4283_6817)">
<path fill-rule="evenodd" clip-rule="evenodd" d="M0 5.37207C0 2.40516 2.40515 0 5.37207 0H16.6278C19.5948 0 21.9999 2.40515 21.9999 5.37207V16.6278C21.9999 19.5948 19.5948 21.9999 16.6278 21.9999H9.97671C9.55288 21.9999 9.20927 21.6563 9.20927 21.2325C9.20927 20.8086 9.55288 20.465 9.97671 20.465H16.6278C18.7471 20.465 20.465 18.7471 20.465 16.6278V5.37207C20.465 3.25285 18.7471 1.53488 16.6278 1.53488H5.37207C3.25285 1.53488 1.53488 3.25285 1.53488 5.37207V16.6278C1.53488 18.7471 3.25285 20.465 5.37207 20.465H5.8837C6.30754 20.465 6.65114 20.8086 6.65114 21.2325C6.65114 21.6563 6.30754 21.9999 5.8837 21.9999H5.37207C2.40516 21.9999 0 19.5948 0 16.6278V5.37207Z" fill="#2D2E2E"/>
<path fill-rule="evenodd" clip-rule="evenodd" d="M8.08759 9.29674C8.3414 9.16453 8.64766 9.18459 8.8821 9.34872L13.9984 12.9301C14.2035 13.0737 14.3257 13.3084 14.3257 13.5588C14.3257 13.8092 14.2035 14.0439 13.9984 14.1875L8.8821 17.7689C8.64766 17.933 8.3414 17.953 8.08759 17.8208C7.83377 17.6887 7.67456 17.4264 7.67456 17.1402V9.9774C7.67456 9.6912 7.83377 9.42884 8.08759 9.29674ZM9.20944 11.4514V15.6662L12.2201 13.5588L9.20944 11.4514Z" fill="#2D2E2E"/>
<path fill-rule="evenodd" clip-rule="evenodd" d="M0 6.90709C0 6.48325 0.343598 6.13965 0.767439 6.13965H21.2325C21.6563 6.13965 21.9999 6.48325 21.9999 6.90709C21.9999 7.33093 21.6563 7.67453 21.2325 7.67453H0.767439C0.343598 7.67453 0 7.33093 0 6.90709Z" fill="#2D2E2E"/>
<path fill-rule="evenodd" clip-rule="evenodd" d="M6.66461 0.0395927C7.0667 -0.0944431 7.50132 0.122865 7.63535 0.524962L9.68184 6.66447C9.81588 7.06656 9.59855 7.50118 9.19651 7.63521C8.79439 7.76925 8.35978 7.55194 8.22574 7.14984L6.17924 1.01033C6.04521 0.608234 6.26252 0.173618 6.66461 0.0395927Z" fill="#2D2E2E"/>
<path fill-rule="evenodd" clip-rule="evenodd" d="M12.804 0.0395927C13.2061 -0.0944431 13.6407 0.122865 13.7747 0.524962L15.8212 6.66447C15.9553 7.06656 15.7379 7.50118 15.3359 7.63521C14.9338 7.76925 14.4992 7.55194 14.3652 7.14984L12.3186 1.01033C12.1846 0.608234 12.4019 0.173618 12.804 0.0395927Z" fill="#2D2E2E"/>
</g>
<defs>
<clipPath id="clip0_4283_6817">
<rect width="22" height="22" fill="white"/>
</clipPath>
</defs>
</svg>
