<svg width="22" height="22" viewBox="0 0 22 22" fill="none" xmlns="http://www.w3.org/2000/svg">
<path d="M3.63167 19.9373C3.38401 19.9363 3.1397 19.88 2.91667 19.7723C2.64328 19.6438 2.41199 19.4404 2.24971 19.1856C2.08743 18.9308 2.00083 18.6352 2 18.3331V2.74978C2.00119 2.53713 2.04442 2.32682 2.12718 2.13094C2.20994 1.93506 2.33061 1.75747 2.48224 1.60839C2.63388 1.45931 2.8135 1.34167 3.01076 1.26225C3.20802 1.18283 3.41903 1.14319 3.63167 1.14561H16.465C16.8897 1.14802 17.2963 1.3178 17.5967 1.61812C17.897 1.91844 18.0668 2.32507 18.0692 2.74978V18.3331C18.0632 18.6234 17.9786 18.9066 17.8243 19.1526C17.67 19.3986 17.4519 19.5981 17.1931 19.7298C16.9344 19.8615 16.6447 19.9206 16.3551 19.9006C16.0654 19.8806 15.7866 19.7824 15.5483 19.6164L10.2317 15.6289C10.1926 15.5977 10.1442 15.5807 10.0942 15.5807C10.0442 15.5807 9.99569 15.5977 9.95667 15.6289L4.59417 19.6164C4.31588 19.8235 3.97855 19.936 3.63167 19.9373ZM3.63167 2.52061C3.57089 2.52061 3.5126 2.54476 3.46962 2.58773C3.42664 2.63071 3.4025 2.689 3.4025 2.74978V18.3331C3.40218 18.3755 3.41412 18.4171 3.43689 18.4529C3.45966 18.4887 3.49228 18.5171 3.53083 18.5348C3.56592 18.5588 3.60746 18.5717 3.65 18.5717C3.69254 18.5717 3.73408 18.5588 3.76917 18.5348L9.13167 14.5289C9.41051 14.3235 9.74779 14.2126 10.0942 14.2126C10.4405 14.2126 10.7778 14.3235 11.0567 14.5289L16.3733 18.5164C16.4084 18.5405 16.45 18.5534 16.4925 18.5534C16.535 18.5534 16.5766 18.5405 16.6117 18.5164C16.6502 18.4988 16.6828 18.4703 16.7056 18.4346C16.7284 18.3988 16.7403 18.3572 16.74 18.3148V2.74978C16.7407 2.71541 16.7337 2.68132 16.7194 2.65004C16.7051 2.61876 16.684 2.5911 16.6576 2.56909C16.6312 2.54708 16.6002 2.5313 16.5668 2.5229C16.5335 2.51451 16.4987 2.51373 16.465 2.52061H3.63167Z" fill="#2D2E2E"/>
</svg>
