<svg width="22" height="22" viewBox="0 0 22 22" fill="none" xmlns="http://www.w3.org/2000/svg">
<path d="M19.6154 7.92308H18.4308L19.2692 7.08462C19.5281 6.82382 19.6733 6.47128 19.6733 6.10385C19.6733 5.73641 19.5281 5.38387 19.2692 5.12308L16.8769 2.73077C16.6124 2.47915 16.2613 2.33883 15.8962 2.33883C15.5311 2.33883 15.1799 2.47915 14.9154 2.73077L14.0769 3.56923V2.38462C14.0749 2.01802 13.9284 1.66701 13.6691 1.40778C13.4099 1.14855 13.0589 1.00202 12.6923 1H9.30769C8.94109 1.00202 8.59008 1.14855 8.33085 1.40778C8.07162 1.66701 7.9251 2.01802 7.92308 2.38462V3.56923L7.08462 2.73077C6.82382 2.47194 6.47128 2.3267 6.10385 2.3267C5.73641 2.3267 5.38387 2.47194 5.12308 2.73077L2.73077 5.12308C2.47194 5.38387 2.3267 5.73641 2.3267 6.10385C2.3267 6.47128 2.47194 6.82382 2.73077 7.08462L3.56923 7.92308H2.38462C2.01802 7.9251 1.66701 8.07162 1.40778 8.33085C1.14855 8.59008 1.00202 8.94109 1 9.30769V12.6923C1.00202 13.0589 1.14855 13.4099 1.40778 13.6691C1.66701 13.9284 2.01802 14.0749 2.38462 14.0769H3.56923L2.73077 14.9154C2.47194 15.1762 2.3267 15.5287 2.3267 15.8962C2.3267 16.2636 2.47194 16.6161 2.73077 16.8769L5.12308 19.2692C5.38387 19.5281 5.73641 19.6733 6.10385 19.6733C6.47128 19.6733 6.82382 19.5281 7.08462 19.2692L7.92308 18.4308V19.6154C7.9251 19.982 8.07162 20.333 8.33085 20.5922C8.59008 20.8515 8.94109 20.998 9.30769 21H12.6923C13.0589 20.998 13.4099 20.8515 13.6691 20.5922C13.9284 20.333 14.0749 19.982 14.0769 19.6154V18.4308L14.9154 19.2692C15.1799 19.5209 15.5311 19.6612 15.8962 19.6612C16.2613 19.6612 16.6124 19.5209 16.8769 19.2692L19.2692 16.8769C19.5281 16.6161 19.6733 16.2636 19.6733 15.8962C19.6733 15.5287 19.5281 15.1762 19.2692 14.9154L18.4308 14.0769H19.6154C19.982 14.0749 20.333 13.9284 20.5922 13.6691C20.8515 13.4099 20.998 13.0589 21 12.6923V9.30769C20.998 8.94109 20.8515 8.59008 20.5922 8.33085C20.333 8.07162 19.982 7.9251 19.6154 7.92308ZM19.4615 12.5385H18.0615C17.7877 12.5378 17.5197 12.6184 17.2916 12.77C17.0635 12.9216 16.8855 13.1374 16.7801 13.3902C16.6748 13.643 16.6467 13.9214 16.6995 14.1901C16.7523 14.4589 16.8837 14.7059 17.0769 14.9L18.0692 15.8923L15.8923 18.0692L14.9077 17.0769C14.714 16.881 14.4663 16.7473 14.1962 16.693C13.9262 16.6386 13.6461 16.6661 13.3917 16.7718C13.1373 16.8775 12.9202 17.0567 12.7682 17.2864C12.6162 17.5162 12.5362 17.7861 12.5385 18.0615V19.4615H9.46154V18.0615C9.46221 17.7877 9.38165 17.5197 9.23003 17.2916C9.07841 17.0635 8.86256 16.8855 8.60977 16.7801C8.35698 16.6748 8.07861 16.6467 7.80987 16.6995C7.54113 16.7523 7.29409 16.8837 7.1 17.0769L6.10769 18.0692L3.93077 15.8923L4.92308 14.9C5.11632 14.7059 5.24766 14.4589 5.30048 14.1901C5.35331 13.9214 5.32525 13.643 5.21985 13.3902C5.11445 13.1374 4.93645 12.9216 4.70836 12.77C4.48027 12.6184 4.21234 12.5378 3.93846 12.5385H2.53846V9.46154H3.93846C4.21234 9.46221 4.48027 9.38165 4.70836 9.23003C4.93645 9.07841 5.11445 8.86256 5.21985 8.60977C5.32525 8.35698 5.35331 8.07861 5.30048 7.80987C5.24766 7.54113 5.11632 7.29409 4.92308 7.1L3.93077 6.10769L6.10769 3.93077L7.1 4.92308C7.29409 5.11632 7.54113 5.24766 7.80987 5.30048C8.07861 5.35331 8.35698 5.32525 8.60977 5.21985C8.86256 5.11445 9.07841 4.93645 9.23003 4.70836C9.38165 4.48027 9.46221 4.21234 9.46154 3.93846V2.53846H12.5385V3.93846C12.5378 4.21234 12.6184 4.48027 12.77 4.70836C12.9216 4.93645 13.1374 5.11445 13.3902 5.21985C13.643 5.32525 13.9214 5.35331 14.1901 5.30048C14.4589 5.24766 14.7059 5.11632 14.9 4.92308L15.8923 3.93077L18.0692 6.10769L17.0769 7.1C16.8837 7.29409 16.7523 7.54113 16.6995 7.80987C16.6467 8.07861 16.6748 8.35698 16.7801 8.60977C16.8855 8.86256 17.0635 9.07841 17.2916 9.23003C17.5197 9.38165 17.7877 9.46221 18.0615 9.46154H19.4615V12.5385Z" fill="#2D2E2E"/>
<path d="M10.9999 6.38477C10.0871 6.38477 9.19473 6.65545 8.43574 7.1626C7.67674 7.66974 7.08518 8.39057 6.73585 9.23392C6.38652 10.0773 6.29512 11.0053 6.47321 11.9006C6.65129 12.7959 7.09087 13.6182 7.73634 14.2637C8.38181 14.9092 9.20419 15.3488 10.0995 15.5269C10.9948 15.7049 11.9228 15.6135 12.7661 15.2642C13.6095 14.9149 14.3303 14.3233 14.8375 13.5643C15.3446 12.8053 15.6153 11.913 15.6153 11.0001C15.6153 9.77607 15.129 8.60213 14.2635 7.73658C13.3979 6.87103 12.224 6.38477 10.9999 6.38477ZM10.9999 14.0771C10.3913 14.0771 9.79646 13.8966 9.29046 13.5585C8.78446 13.2204 8.39009 12.7399 8.1572 12.1776C7.92432 11.6154 7.86338 10.9967 7.98211 10.3999C8.10083 9.80301 8.39388 9.25475 8.82419 8.82444C9.25451 8.39412 9.80277 8.10107 10.3996 7.98235C10.9965 7.86363 11.6152 7.92456 12.1774 8.15744C12.7396 8.39033 13.2202 8.78471 13.5583 9.2907C13.8964 9.7967 14.0768 10.3916 14.0768 11.0001C14.0768 11.8162 13.7527 12.5988 13.1756 13.1759C12.5986 13.7529 11.816 14.0771 10.9999 14.0771Z" fill="#2D2E2E"/>
</svg>
