<svg width="47" height="35" viewBox="0 0 47 35" fill="none" xmlns="http://www.w3.org/2000/svg">
<path d="M30.3325 34.4147H27.7165L15.1009 7.07391L2.4852 34.4147H0L14.388 1.97949H15.9184L30.3325 34.4147ZM25.1005 34.4147H22.4845L20.7776 30.7667H9.156L7.44906 34.4147H4.9704L7.63872 28.6035H22.4191L25.1005 34.4147ZM8.65242 26.4403L15.042 12.6099L21.4054 26.4403H8.65242ZM12.1513 24.2771H17.7692L14.957 18.1523L12.1513 24.2771Z" fill="url(#paint0_linear_4474_7900)"/>
<path d="M22.2355 9.32006H30.332V34.4145H32.8172V7.02246H21.1172L22.2355 9.32006Z" fill="url(#paint1_linear_4474_7900)"/>
<path d="M17.959 2.43335L19.2604 4.73093H43.7266V7.02213H35.3031V34.4141H37.7883V9.31973H46.0744V9.28773V7.02213V4.73093V3.22695V2.43335H17.959Z" fill="url(#paint2_linear_4474_7900)"/>
<path d="M5.74172 6.2739C5.15783 6.32433 4.57355 6.18142 4.08257 5.86808C3.5916 5.55473 3.22239 5.08913 3.03416 4.5459C2.90929 4.21573 2.85307 3.86449 2.86879 3.51281C2.88451 3.16115 2.97187 2.81608 3.12572 2.49788C3.3415 1.99532 3.70729 1.56821 4.17522 1.27245C4.64314 0.976698 5.19141 0.826068 5.74826 0.840276C7.4225 0.910676 8.45582 1.86428 8.58008 3.20188C8.60958 3.4035 8.60958 3.60824 8.58008 3.8099C8.49029 4.44478 8.18232 5.03089 7.70686 5.47172C7.2314 5.91256 6.61678 6.18193 5.96408 6.2355L5.74172 6.2739ZM5.74172 4.6291C6.06682 4.63083 6.37969 4.50789 6.61318 4.28657C6.84672 4.0652 6.9823 3.76312 6.99086 3.4451C6.96261 3.15196 6.81945 2.88093 6.59147 2.68884C6.36344 2.49674 6.06828 2.39848 5.76788 2.41468C5.45545 2.423 5.15639 2.54052 4.92486 2.74597C4.69332 2.95142 4.54461 3.23121 4.50566 3.5347C4.52721 3.83237 4.66344 4.11096 4.88682 4.31409C5.1102 4.51723 5.40407 4.62981 5.70902 4.6291H5.74172Z" fill="url(#paint3_linear_4474_7900)"/>
<path d="M46.0484 16.0533L46.0746 13.7812L40.0186 13.7877L40.0447 16.0533H46.0484Z" fill="url(#paint4_linear_4474_7900)"/>
<path d="M40.0447 19.7266H46.0484L46.0746 17.4546L40.0186 17.461L40.0447 19.7266Z" fill="url(#paint5_linear_4474_7900)"/>
<path d="M40.0447 23.3935H46.0484L46.0746 21.1279L40.0186 21.1343L40.0447 23.3935Z" fill="url(#paint6_linear_4474_7900)"/>
<path d="M40.0447 27.0677H46.0484L46.0746 24.7957L40.0186 24.8021L40.0447 27.0677Z" fill="url(#paint7_linear_4474_7900)"/>
<path d="M40.0447 30.741H46.0484L46.0746 28.469L40.0186 28.4754L40.0447 30.741Z" fill="url(#paint8_linear_4474_7900)"/>
<path d="M40.0447 34.4146H46.0484L46.0746 32.1426L40.0186 32.149L40.0447 34.4146Z" fill="url(#paint9_linear_4474_7900)"/>
<defs>
<linearGradient id="paint0_linear_4474_7900" x1="0" y1="18.1971" x2="30.3325" y2="18.1971" gradientUnits="userSpaceOnUse">
<stop offset="0.45" stop-color="#9F00AA"/>
<stop offset="0.47" stop-color="#9A00A9"/>
<stop offset="0.66" stop-color="#580097"/>
<stop offset="0.81" stop-color="#29008B"/>
<stop offset="0.93" stop-color="#0B0083"/>
<stop offset="1" stop-color="#000080"/>
</linearGradient>
<linearGradient id="paint1_linear_4474_7900" x1="21.1172" y1="20.7185" x2="32.8172" y2="20.7185" gradientUnits="userSpaceOnUse">
<stop offset="0.45" stop-color="#9F00AA"/>
<stop offset="0.47" stop-color="#9A00A9"/>
<stop offset="0.66" stop-color="#580097"/>
<stop offset="0.81" stop-color="#29008B"/>
<stop offset="0.93" stop-color="#0B0083"/>
<stop offset="1" stop-color="#000080"/>
</linearGradient>
<linearGradient id="paint2_linear_4474_7900" x1="17.959" y1="18.4205" x2="46.0744" y2="18.4205" gradientUnits="userSpaceOnUse">
<stop offset="0.45" stop-color="#9F00AA"/>
<stop offset="0.47" stop-color="#9A00A9"/>
<stop offset="0.66" stop-color="#580097"/>
<stop offset="0.81" stop-color="#29008B"/>
<stop offset="0.93" stop-color="#0B0083"/>
<stop offset="1" stop-color="#000080"/>
</linearGradient>
<linearGradient id="paint3_linear_4474_7900" x1="2.86412" y1="3.5731" x2="8.58662" y2="3.5731" gradientUnits="userSpaceOnUse">
<stop offset="0.45" stop-color="#9F00AA"/>
<stop offset="0.47" stop-color="#9A00A9"/>
<stop offset="0.66" stop-color="#580097"/>
<stop offset="0.81" stop-color="#29008B"/>
<stop offset="0.93" stop-color="#0B0083"/>
<stop offset="1" stop-color="#000080"/>
</linearGradient>
<linearGradient id="paint4_linear_4474_7900" x1="40.0186" y1="14.9141" x2="49.3795" y2="14.9141" gradientUnits="userSpaceOnUse">
<stop offset="0.45" stop-color="#9F00AA"/>
<stop offset="0.47" stop-color="#9A00A9"/>
<stop offset="0.66" stop-color="#580097"/>
<stop offset="0.81" stop-color="#29008B"/>
<stop offset="0.93" stop-color="#0B0083"/>
<stop offset="1" stop-color="#000080"/>
</linearGradient>
<linearGradient id="paint5_linear_4474_7900" x1="40.0186" y1="18.5874" x2="49.3795" y2="18.5874" gradientUnits="userSpaceOnUse">
<stop offset="0.45" stop-color="#9F00AA"/>
<stop offset="0.47" stop-color="#9A00A9"/>
<stop offset="0.66" stop-color="#580097"/>
<stop offset="0.81" stop-color="#29008B"/>
<stop offset="0.93" stop-color="#0B0083"/>
<stop offset="1" stop-color="#000080"/>
</linearGradient>
<linearGradient id="paint6_linear_4474_7900" x1="40.0186" y1="22.2575" x2="49.3795" y2="22.2575" gradientUnits="userSpaceOnUse">
<stop offset="0.45" stop-color="#9F00AA"/>
<stop offset="0.47" stop-color="#9A00A9"/>
<stop offset="0.66" stop-color="#580097"/>
<stop offset="0.81" stop-color="#29008B"/>
<stop offset="0.93" stop-color="#0B0083"/>
<stop offset="1" stop-color="#000080"/>
</linearGradient>
<linearGradient id="paint7_linear_4474_7900" x1="40.0186" y1="25.9285" x2="49.3795" y2="25.9285" gradientUnits="userSpaceOnUse">
<stop offset="0.45" stop-color="#9F00AA"/>
<stop offset="0.47" stop-color="#9A00A9"/>
<stop offset="0.66" stop-color="#580097"/>
<stop offset="0.81" stop-color="#29008B"/>
<stop offset="0.93" stop-color="#0B0083"/>
<stop offset="1" stop-color="#000080"/>
</linearGradient>
<linearGradient id="paint8_linear_4474_7900" x1="40.0186" y1="29.6018" x2="49.3795" y2="29.6018" gradientUnits="userSpaceOnUse">
<stop offset="0.45" stop-color="#9F00AA"/>
<stop offset="0.47" stop-color="#9A00A9"/>
<stop offset="0.66" stop-color="#580097"/>
<stop offset="0.81" stop-color="#29008B"/>
<stop offset="0.93" stop-color="#0B0083"/>
<stop offset="1" stop-color="#000080"/>
</linearGradient>
<linearGradient id="paint9_linear_4474_7900" x1="40.0186" y1="33.2754" x2="49.3795" y2="33.2754" gradientUnits="userSpaceOnUse">
<stop offset="0.45" stop-color="#9F00AA"/>
<stop offset="0.47" stop-color="#9A00A9"/>
<stop offset="0.66" stop-color="#580097"/>
<stop offset="0.81" stop-color="#29008B"/>
<stop offset="0.93" stop-color="#0B0083"/>
<stop offset="1" stop-color="#000080"/>
</linearGradient>
</defs>
</svg>
