<svg width="22" height="22" viewBox="0 0 22 22" fill="none" xmlns="http://www.w3.org/2000/svg">
<g clip-path="url(#clip0_4283_6870)">
<path d="M11 0C8.82441 0 6.69767 0.645139 4.88873 1.85383C3.07979 3.06253 1.66989 4.78049 0.83733 6.79048C0.00476613 8.80047 -0.21307 11.0122 0.211367 13.146C0.635804 15.2798 1.68345 17.2398 3.22183 18.7782C4.76021 20.3165 6.72022 21.3642 8.85401 21.7886C10.9878 22.2131 13.1995 21.9952 15.2095 21.1627C17.2195 20.3301 18.9375 18.9202 20.1462 17.1113C21.3549 15.3023 22 13.1756 22 11C22 8.08261 20.8411 5.28472 18.7782 3.22182C16.7153 1.15892 13.9174 0 11 0ZM11 20.3077C9.15911 20.3077 7.35957 19.7618 5.82893 18.7391C4.29828 17.7163 3.10529 16.2627 2.40082 14.5619C1.69634 12.8611 1.51202 10.9897 1.87116 9.18416C2.2303 7.37864 3.11677 5.72017 4.41847 4.41847C5.72017 3.11676 7.37865 2.23029 9.18416 1.87115C10.9897 1.51201 12.8611 1.69634 14.5619 2.40081C16.2627 3.10529 17.7163 4.29828 18.7391 5.82892C19.7618 7.35956 20.3077 9.15911 20.3077 11C20.3077 13.4685 19.3271 15.836 17.5815 17.5815C15.836 19.3271 13.4686 20.3077 11 20.3077Z" fill="#2D2E2E"/>
<path d="M15.2732 10.2981L8.92702 6.06738C8.80214 5.98658 8.65817 5.94012 8.50962 5.9327C8.36106 5.92527 8.21318 5.95713 8.08086 6.02507C7.94259 6.09473 7.82608 6.20099 7.74402 6.33228C7.66196 6.46358 7.6175 6.61487 7.61548 6.76968V15.2312C7.61589 15.3843 7.65781 15.5344 7.73679 15.6655C7.81576 15.7966 7.92883 15.9039 8.06394 15.9758C8.19625 16.0438 8.34414 16.0756 8.49269 16.0682C8.64125 16.0608 8.78522 16.0143 8.91009 15.9335L15.2562 11.7028C15.3714 11.6254 15.4658 11.5208 15.5311 11.3983C15.5963 11.2759 15.6304 11.1392 15.6304 11.0005C15.6304 10.8617 15.5963 10.725 15.5311 10.6026C15.4658 10.4801 15.3714 10.3755 15.2562 10.2981H15.2732ZM9.35009 13.6828V8.35199L13.2847 11.0005L9.35009 13.6828Z" fill="#2D2E2E"/>
</g>
<defs>
<clipPath id="clip0_4283_6870">
<rect width="22" height="22" fill="white"/>
</clipPath>
</defs>
</svg>
